<?xml version="1.0" encoding="utf-8" ?>
<svg baseProfile="full" height="300mm" version="1.1" viewBox="0,0,200,300" width="200mm" xmlns="http://www.w3.org/2000/svg" xmlns:ev="http://www.w3.org/2001/xml-events" xmlns:xlink="http://www.w3.org/1999/xlink"><defs /><rect fill="#222222" height="300" width="200" x="0" y="0" /><text fill="#FFFFFF" style="font-size:12px; font-family:Arial; font-weight:bold;" x="10" y="20">Over 5km Runs</text><text fill="#FFFFFF" style="font-size:4px; font-family:Arial" x="10" y="280">ATHLETE</text><text fill="#FFFFFF" style="font-size:9px; font-family:Arial" x="10" y="290">Willyzw</text><text fill="#FFFFFF" style="font-size:4px; font-family:Arial" x="120" y="280">STATISTICS</text><text fill="#FFFFFF" style="font-size:3px; font-family:Arial" x="120" y="285">Number: 9</text><text fill="#FFFFFF" style="font-size:3px; font-family:Arial" x="120" y="290">Weekly: 1.3</text><text fill="#FFFFFF" style="font-size:3px; font-family:Arial" x="141" y="285">Total: 62.3 km</text><text fill="#FFFFFF" style="font-size:3px; font-family:Arial" x="141" y="290">Avg: 6.9 km</text><text fill="#FFFFFF" style="font-size:3px; font-family:Arial" x="167" y="285">Min: 5.0 km</text><text fill="#FFFFFF" style="font-size:3px; font-family:Arial" x="167" y="290">Max: 11.1 km</text><polyline fill="none" points="13.0,53.290837637025106 14.199639747850597,52.381398539058864 15.02641849295469,50.70997949934099 17.71750225155847,47.85868307631608 18.738817172008567,45.867652597160486 19.176523566478863,45.79391011147527 24.558691083744634,49.48098048797692 25.223356349451933,49.62846101474861 27.217352146515623,51.816068158696 28.595316721708514,52.75009087186481 30.589312518772203,52.135603039227135 32.45361753227189,52.528875604170025 33.0048033624189,53.58578942058375 34.44761332933558,54.32316579953476 35.436505553894676,55.38006426960055 36.749624737363774,58.62444031807536 37.997898528934456,60.39406408001378 42.18042629840784,64.17900761831697 44.790453317342326,65.8502444947444 47.8219753827434,66.85789110177575 52.50705493846908,67.71807072932279 61.52056439506123,72.36293726398435 67.0,74.20608988851745 62.785049534693826,72.90359821623133 52.36115280695958,67.66891776902776 46.58991293911822,66.51381757429044 43.331432002421934,64.99005186629802 38.51666166319046,60.88562173885293 36.94416091265157,58.993114024917304 35.58240768540418,56.36321752177173 34.72320624435088,56.58442592561914 35.04743320326088,57.22347020106827 34.82047433202388,57.46925558089424 32.58330831583589,55.99453596890089 31.318823176261503,54.5689569480237 28.579105373763014,53.56121013214579 24.120984689274337,49.2105990650889" stroke="#ffeb00" stroke-linecap="round" stroke-linejoin="round" stroke-width="0.5"><title>2014-09-01 5.5km</title></polyline><polyline fill="none" points="73.0,47.773925891429826 74.9109589040745,45.15683808430185 77.37671232875437,46.66790540552029 81.07534246571595,49.72110709860863 81.54794520547148,49.67437531667383 82.16438356164144,49.17590124081471 83.34589041094296,49.269365371685126 84.12671232875437,50.51554312517692 84.73287671231083,52.11996778249886 85.30821917805588,51.91746939549921 87.16780821915017,54.79912791986135 89.20205479449942,56.605951613863 91.25684931504657,57.96104203007417 92.8801369862922,58.52176224080176 96.04452054793364,59.113629219384165 102.2499999999709,62.21307009387965 105.20890410957509,63.11640163756965 108.9999999999709,65.09434984340623 111.56849315069849,66.90093605492439 113.98287671231083,68.27142193779582 116.67465753422584,69.1746836139937 118.46232876711292,70.10908128361189 122.43835616434808,72.88106212110142 127.0,74.92105277404335 123.28082191781141,73.33266768401518 119.81849315066938,70.91888358110737 116.69520547945285,69.36156403965288 116.22260273972643,68.9410824549559 113.30479452051804,67.9443763486779 109.43150684933062,65.40583319752477 106.63698630133877,63.86397848468914 103.7602739725844,62.64916248466761 102.49657534243306,62.36881765506405 100.35958904106519,61.091678510849306 98.77739726024447,60.49982648003788 97.85273972598952,59.84566903205996 96.81506849313155,59.56531416752114 96.19863013696158,59.113629219384165 94.60616438355646,58.599639730389754 93.09589041094296,58.58406423868291 90.2705479451688,57.384742074646056 86.8698630136787,54.48760238032992 85.30821917805588,51.995353452490235 84.67123287671711,52.1666981051676 83.54109589039581,49.59648895151622 82.19520547945285,49.36282939105877 81.55821917805588,49.985920002924104 81.2499999999709,49.985920002924104 79.16438356164144,48.31914150965895 78.70205479449942,47.711615293352224 78.41438356164144,47.72719294753915 76.88356164380093,46.38750336361409 75.37328767124563,45.49955694050004 77.61301369863213,46.885995188458764 78.49657534243306,47.74277059859014 78.87671232872526,47.50910550726985 79.86301369860303,46.122678291008924 79.87328767121653,45.40608831029385 80.1404109588766,45.312619568547234 79.72945205477299,45.18799440589646 80.25342465750873,45.374932075435936 80.67465753419674,45.078947225956654 81.73287671231083,45.624181607272476" stroke="#ff3600" stroke-linecap="round" stroke-linejoin="round" stroke-width="0.5"><title>2014-09-05 9.8km</title></polyline><polyline fill="none" points="133.0,53.30495836832415 134.06914407556178,51.50935812637181 137.1120925982832,47.89314070549881 138.3457203776925,45.69841996210744 138.72403289674548,45.62359925952478 144.03685653372668,49.43939816013153 144.76058483100496,49.61397441660665 145.48431312828325,50.636487608884636 147.9680170575739,52.706427811674075 149.46481876337202,53.15532599698781 150.45172098692274,52.382222567117424 152.22814498934895,52.531855861030635 154.3006396588753,56.546949230229075 155.40268047520658,56.546949230229075 157.310691440769,60.013292881529196 163.29789826378692,65.25003319720417 167.29485226928955,67.02050068959215 172.54188242467353,67.96806457034108 182.39445628994144,72.95512487251835 187.0,74.37640074047522 182.6905269570998,73.12966839065484 177.26256472739624,70.06265405560407 172.39384709106525,67.96806457034108 169.7127627170412,67.29479623356747 167.7225098994677,67.21998841739696 164.59731952485163,66.09786581985827 162.3109960402362,64.62662319958326 158.511422479467,61.334967023729405 156.5211696618935,58.86616818166658 155.28754188248422,56.422258824029996 154.58026195556158,56.571887296544446 154.6131586963893,57.644219457339204 150.20499543106416,54.10299466593278 148.28053609508788,53.379774486973474 144.06975327443797,49.41445867510629" stroke="#ffed00" stroke-linecap="round" stroke-linejoin="round" stroke-width="0.5"><title>2014-09-23 5.5km</title></polyline><polyline fill="none" points="26.675065314862877,175.5821196581819 30.025779884774238,177.0 36.181743862107396,171.56477364251623 53.32493468513712,162.70288487744983 50.90930325118825,141.1974850317347 46.07804038259201,137.06174193986226 42.10393705544993,138.24338576191803 48.41574822226539,128.55383701709798 47.71443587029353,124.18167180015007 42.259784244699404,123.94533762824722 34.93496634764597,132.9259700474213 35.09081353712827,135.52560145611642 37.662292160559446,138.12522148521384 42.337707839440554,136.82541289296933 48.49367181677371,129.14466768619604 48.18197743827477,125.48150806472404 45.844269598601386,123.11816728598205 40.935083135729656,125.12700754759135 35.48043151013553,131.86248119187076 34.7791191583965,135.52560145611642 38.12983372854069,138.36155001464067 41.4026247037109,137.53439975058427 48.18197743827477,129.61733179783914 48.49367181677371,125.48150806472404 45.766346004093066,123.47266900219256 43.27279097517021,123.82717050716747 35.40250791562721,132.68963935534703 35.870049483608454,137.17990642774384 41.16885391972028,138.12522148521384 48.57159541151486,128.672003198124 46.77935273456387,123.47266900219256 42.415631434181705,123.82717050716747 35.40250791562721,132.57147397386143 35.870049483608454,137.06174193986226 37.89606294455007,138.36155001464067 41.48054829821922,137.53439975058427 48.727442600764334,127.84483943891246 45.922193193109706,123.0 41.48054829821922,124.18167180015007 34.70119556388818,133.6349615601357 36.64928543008864,137.65256414469332 42.10393705544993,137.17990642774384 48.727442600764334,129.26283374929335 47.168970707571134,123.94533762824722 42.415631434181705,123.47266900219256 35.09081353712827,132.8078047132003 35.16873713163659,136.2345898654894 36.88305621407926,137.8888928621891 41.63639548770152,137.17990642774384 48.41574822226539,129.0265015992336 46.85727632907219,123.94533762824722 42.415631434181705,124.06350472586928 34.93496634764597,132.9259700474213 36.103820267599076,137.41623533325037 41.4026247037109,137.65256414469332 48.64951900602318,128.43567081302172 47.480665086302906,124.29983885079855 45.14295724709518,123.23633454815717 42.02601346094161,124.53617288172245 35.16873713163659,133.3986311503104 37.27267418708652,138.24338576191803 41.87016627145931,137.41623533325037 48.25990103278309,128.7901693552849 46.77935273456387,123.3545017868164 42.259784244699404,124.18167180015007 35.09081353712827,133.28046590980375 37.428521376568824,138.24338576191803 41.94808986620046,137.77072851505363 48.49367181677371,129.0265015992336 47.55858868104406,124.41800587816397 42.18186065019108,123.70900336233899 35.09081353712827,133.6349615601357 36.72720902459696,138.00705718545942 41.16885391972028,137.65256414469332 48.727442600764334,128.7901693552849 46.93519992381334,123.82717050716747 41.55847189296037,124.53617288172245 35.16873713163659,133.6349615601357 36.41551464609802,137.65256414469332 41.87016627145931,138.24338576191803" stroke="#fffe00" stroke-linecap="round" stroke-linejoin="round" stroke-width="0.5"><title>2014-11-02 5.0km</title></polyline><polyline fill="none" points="89.57170172093902,146.24262350448407 93.5984703633003,146.00776871139533 100.516252390109,142.40664432937047 105.11089866166003,141.5455010071455 110.47992351825815,142.48492999261362 117.13957934989594,138.6489141829079 121.73422562156338,138.57062775662052 125.96749521989841,140.2929255377676 127.0,153.05335152841872 124.88336520083249,155.16700177296298 120.44359464629088,156.18468117463635 102.63288718927652,157.5937713853491 88.07456978969276,160.49021874993923 85.90630975156091,159.86396166702616 78.31739961763378,164.87399042295874 79.55640535382554,142.48492999261362 82.55066921608523,138.9620597323228 82.55066921608523,136.77003565159976 81.0535372850718,135.12600957704126 79.4015296366997,135.12600957704126 73.61950286815409,141.3889292915119 74.13575525826309,144.91177782326122 77.33652007649653,145.14663327054586 82.2409177821828,139.27520503269625 80.5372848949628,135.28258378469036 77.74952198867686,136.30031461687759 73.516252390109,141.85864425153704 73.56787762907334,144.20721064007375 74.70363288722001,145.22491838838323 78.2141491395887,144.28549594501965 82.29254302114714,138.49234131455887 80.43403441691771,135.36087086531916 78.2141491395887,135.75230603441014 73.05162523896433,142.6415012718935 74.13575525826309,144.59863700874848 77.13001912052277,144.99006298783934 81.98279158701189,139.7449225160526 82.70554493309464,137.39632949233055 81.00191204587463,135.5174449797778 78.67877629073337,135.36087086531916 73.61950286815409,141.15407160136965 73.1032504781615,142.79807248926954 74.23900573619176,144.83349264290882 78.05927342257928,144.3637812344241 82.39579349895939,138.6489141829079 81.67304015299305,135.83059302155743 78.00764818361495,135.75230603441014 73.516252390109,141.70207266067155 74.39388145320117,145.0683481368469 77.49139579350594,145.22491838838323 82.44741873815656,138.88377336840495 81.82791587000247,135.90887999301776 79.45315487566404,135.20429668866564 78.05927342257928,135.98716694908217 73.0,142.79807248926954 74.60038240917493,145.14663327054586 78.16252390062436,144.28549594501965 82.44741873815656,138.33576838401495 80.69216061197221,135.28258378469036 78.52390057360753,135.59573201363673 73.4130019119475,142.17178724665428 74.2906309752725,145.0683481368469 77.90439770545345,144.59863700874848 82.39579349895939,139.19691873108968 80.9502868069103,135.5174449797778 78.67877629073337,135.6740190318087 73.77437858527992,141.5455010071455 73.56787762907334,143.81578388236812 74.80688336538151,144.83349264290882 78.47227533475962,143.65921306991368 82.29254302114714,138.72720059350831 82.2409177821828,137.00489595884574 80.69216061197221,135.59573201363673 77.8011472276412,136.691748851561 73.4130019119475,142.3283586507896 73.516252390109,143.81578388236812 75.01338432135526,144.7552074471605 80.02103250485379,142.95464364395593 79.04015296371654,144.12892531970283" stroke="#ffee00" stroke-linecap="round" stroke-linejoin="round" stroke-width="0.5"><title>2015-08-14 5.4km</title></polyline><polyline fill="none" points="153.18966485088458,177.0 153.72710190329235,176.59253813784744 154.1973593242583,176.7708028621346 159.13506224367302,173.71480181091465 158.8831386253587,169.97110109389905 156.78377513919258,165.20854806669377 155.75928575790022,165.15761071301677 157.1700580206816,162.5852479903042 156.63262096821563,160.42034821248672 157.89223905984545,159.1213907700294 157.90903396782232,158.02618111504125 155.2890283370507,155.68291037888412 152.68581761419773,154.7914374210668 151.3422249830328,152.85564619017532 149.66273419413483,148.65284076118405 151.0735064567998,145.26502441213233 150.1161967071239,143.6602379997057 149.52837493101833,139.48260439508158 151.37581479887012,136.88425129699317 151.57735369348666,134.69344200801424 152.03081620647572,134.08204667572136 159.94121782237198,130.4645645264609 160.91532247996656,129.31815800119512 162.93071142671397,128.22269328193215 166.45764208346372,127.91698052389984 170.25329126644647,128.35007338222204 170.47162506898167,127.68769547608099 170.4548301611212,127.20364791497559 169.4975204114453,126.89793272256065 165.26520362327574,126.15911799238529 163.33378921600524,126.41388217431086 158.71518954646308,128.5029293352054 155.57454177114414,128.17174120621348 153.91184589016484,126.66864584897849 153.17286994302412,125.34386920210818 152.7026125220582,123.35667851746257 152.0812009301735,123.0 159.43737058574334,165.41229727895552 158.86634371749824,170.2003104067262" stroke="#ffc800" stroke-linecap="round" stroke-linejoin="round" stroke-width="0.5"><title>2016-09-24 6.3km</title></polyline><polyline fill="none" points="29.31992483336944,227.84245227412612 30.44810178759508,229.38373976916773 33.11812057916541,230.24000701543991 35.22405089379754,232.80879339452076 37.29237530997489,233.77921780809993 38.60858175647445,235.60589013723074 39.3606997259194,238.85962136479793 41.50423593900632,239.7158602809941 45.152008090983145,238.80253867944703 52.37234059791081,234.80672242683067 52.03388751170132,232.12378594619804 46.50582043605391,222.24807982117636 45.528067075647414,222.13390781705675 43.38453086267691,223.78939742383955 40.564088477171026,223.90356876817532 38.646187654929236,220.59258130457602 36.12659245717805,219.8504581733432 36.72828683280386,216.02563923108391 36.201804254204035,215.1122420768079 30.48570768616628,213.28543902887031 25.446517290663905,213.0 23.716645960812457,216.48233671567868 22.362833615741692,227.61411268048687 24.09270494559314,249.70512516498275 21.159444864606485,256.44054711429635 31.689096437301487,259.2944916893757 41.54184183734469,265.17352788624703 44.55031371535733,265.915533587191 44.62552551238332,267.0 48.72456844593398,263.9748992316745 49.58950411085971,260.20774794739555 52.18431110563688,256.5547054434719 54.215029623243026,250.44717094030057 58.840555135393515,242.79829918387986 49.025415633805096,224.53151034816983 48.423721258179285,217.96659851098957 39.81197050772607,215.22641688059957 34.359115228871815,214.940979786159 31.914731828146614,220.93509902412188 26.085817564744502,217.79533792710572 24.957640610518865,217.852424799843 23.67904006235767,218.9941598628502 22.814104397431947,222.81893915966793 22.66368080349639,235.77714007088798 23.49101056996733,236.23380605966668 28.003718386869878,235.43464010149182 27.66526530054398,230.8679347025609" stroke="#ffff00" stroke-linecap="round" stroke-linejoin="round" stroke-width="0.5"><title>2019-06-24 5.0km</title></polyline><polyline fill="none" points="108.92760431472561,214.7657886936213 108.48964636717574,213.87449033790472 107.5126632534957,213.0 103.5485823439667,217.84321991319302 101.85289900872158,219.10443056387885 101.30264415158308,220.13020165678608 100.29197196499445,223.20744190305413 100.24705320116482,232.4216920169565 99.89893278136151,234.64103615374916 99.932621854241,236.70901009461522 98.02357439071056,237.28063644127542 97.77652118954575,238.39025326628325 91.10608475821209,250.05718021861685 89.54515771451406,254.0074399283185 87.86070407021907,259.6215411033263 87.5575024142745,262.74779872804356 87.84947437926894,265.8403294795935 87.46766488658614,266.058819317288 86.22116918978281,266.09243308952136 85.78321124229115,266.2605017544847 85.95165660668863,266.512604139476 87.0409366300155,266.8319327721838 90.60074866493233,266.2941154482469 91.54404270573286,267.0 91.20715197687969,266.1428537233005 90.99378784859437,264.10919817454123 91.60019116051262,261.7225331447844 91.80232559784781,258.52900506782316 93.19480727711925,254.7134247827271 94.53114050158183,251.85583148618753 95.22738134121755,249.3343472071865 96.46264734704164,246.6951149007873 100.79730805833242,239.76884827137837 101.95396622736007,236.72582268814585 102.80742274047225,235.2799276923106 104.17744503784343,234.10301856439037 105.25549537016195,232.58982614312117 105.74960177249159,232.5057591209552 106.71535519522149,232.85884006492415 109.30941380740842,229.9332687160495 110.46607197649428,228.06690423299005 111.7125676732685,225.1748003926623 112.98152275191387,223.17381145415857 114.21678875773796,220.39925435460464 113.9585058655939,219.7938846068937 112.1617553117394,218.48223560936458 112.33020067613688,217.72550598021917 111.92593180149561,217.20419949293137" stroke="#ff6d00" stroke-linecap="round" stroke-linejoin="round" stroke-width="0.5"><title>2021-04-26 8.5km</title></polyline><polyline fill="none" points="169.5606422360579,213.7854998478142 172.08748184674187,215.46671578277164 172.52853021517512,216.41754970451075 170.88378734129947,218.6774514371573 169.93737105076434,222.06716849283112 169.65252731280634,224.65757432868122 168.82556162207038,225.58072792105304 167.49322800914524,226.31097520299227 166.96948307164712,227.09632706364573 165.89442767362925,227.96433738479755 165.99550125809037,229.1492231485281 165.8117311045935,230.09987294080202 165.97712424272322,230.89895997295753 165.57282990502426,231.89091750909938 165.92199319667998,232.78642276808387 164.709110183554,234.90803608353963 164.02916061558062,235.36265922025268 163.70756284694653,236.21679174862584 162.91735118688666,237.34643504146516 162.42117177243927,237.53929916461493 161.6309601123503,238.68269708328444 161.45637846650789,239.48168705679564 160.68454382178606,241.09341519970621 161.14396920555737,241.57554895390058 160.73048636020394,242.53980659358785 160.849936959974,243.2974283657095 160.4915851606347,243.75199753005654 159.65543096218607,244.22033845922124 158.9754813942127,245.07436392757882 158.43335944137652,245.00549128856437 157.4501891201071,244.46828240040486 157.027517767041,245.12946199047292 155.98921639978653,246.0661224869218 155.81463475394412,247.44354184057738 155.9616508767358,248.35262390694697 155.676807138836,248.79338675994586 153.26022962020943,249.6886778418957 152.03815809939988,250.88697277109168 151.65224077706807,255.40449969957263 151.88195346892462,256.4236579261342 151.6062982386793,258.1864915145088 150.09938297994086,261.7257980681279 149.5205069964286,262.44190079365217 148.17898487581988,263.3232480345396 147.26013410830637,263.3783318722053 147.75631352275377,263.4884994187196 147.7838790457754,263.79145928631624 147.58173187694047,263.94293873310744 147.87576412252383,263.4471866089043 148.4178860753891,263.3232480345396 148.85893444379326,263.9980220878242 148.58327921351884,265.93968291563215 148.02278024534462,267.0 148.0687227837334,266.60066166656543 148.25249293725938,266.7108241908136 148.8405574284552,266.1737802634925 150.14532551832963,265.4990269811133 151.48684763893834,264.2734382175113 151.79006839217618,263.63997951482816 151.8176339151978,263.0753702338443 152.66297662135912,262.31796045653755 153.60939291186514,260.34865704959884 154.27096546450048,259.48104443028205 154.99685757083353,256.7404203271399 154.62931726383977,255.95539786323934 154.57418621779652,254.9086876806541 154.85902995572542,253.8344163735892 155.26332429342438,253.26972875422507 155.1438736936252,252.6086253201829 155.391963400878,252.12656683416208 157.027517767041,250.34980859129791 158.0841961497208,250.54263722819815 158.54362153349211,250.28094109352242 159.67380797752412,248.4903625938059 160.05053679223056,247.33334928026306 160.43645411456237,246.94767396610405 161.7687877274584,247.14051188631856 162.21902460357524,246.837480632621 162.4395487877773,246.19009132814972 163.76269389298977,244.66112708652872 164.31400435350952,243.5591503629148 165.46256781290867,242.44338142173 165.7749770738592,241.038313989804 165.9863127504068,238.32452623138306 168.5315293764579,235.04580097930375 168.54990639179596,234.41208023463696 169.32174103651778,233.9161209046033 170.38760792682297,232.2353439518738 171.59130243226537,230.95406909030135 172.27125200023875,229.74165857886328 172.73986589169363,228.019448791154 172.5377187228296,226.99988081412448 172.2161209542246,226.10430220974376 171.48104034020798,225.49805794181884 171.06755749479635,224.80913768637402 169.81792045099428,224.3268895104993 169.79035492794355,223.5415068639195 170.1670837426209,221.59868069958975 169.25742148279096,219.11839944370513 168.40289026900427,218.45697640183062 168.05372697731946,217.1754516353394 167.99859593130532,214.48830809751598 168.4304557920259,213.0 168.95420072952402,213.44098344604208" stroke="red" stroke-linecap="round" stroke-linejoin="round" stroke-width="0.5"><title>2021-04-27 11.1km</title></polyline></svg>