<?xml version="1.0" encoding="utf-8" ?>
<svg baseProfile="full" height="300mm" version="1.1" viewBox="0,0,200,300" width="200mm" xmlns="http://www.w3.org/2000/svg" xmlns:ev="http://www.w3.org/2001/xml-events" xmlns:xlink="http://www.w3.org/1999/xlink"><defs /><rect fill="#222222" height="300" width="200" x="0" y="0" /><text fill="#FFFFFF" style="font-size:12px; font-family:Arial; font-weight:bold;" x="10" y="20">Over 5km Runs</text><text fill="#FFFFFF" style="font-size:4px; font-family:Arial" x="10" y="280">ATHLETE</text><text fill="#FFFFFF" style="font-size:9px; font-family:Arial" x="10" y="290">Willyzw</text><text fill="#FFFFFF" style="font-size:4px; font-family:Arial" x="120" y="280">STATISTICS</text><text fill="#FFFFFF" style="font-size:3px; font-family:Arial" x="120" y="285">Number: 7</text><text fill="#FFFFFF" style="font-size:3px; font-family:Arial" x="120" y="290">Weekly: 1.2</text><text fill="#FFFFFF" style="font-size:3px; font-family:Arial" x="141" y="285">Total: 42.6 km</text><text fill="#FFFFFF" style="font-size:3px; font-family:Arial" x="141" y="290">Avg: 6.1 km</text><text fill="#FFFFFF" style="font-size:3px; font-family:Arial" x="167" y="285">Min: 5.0 km</text><text fill="#FFFFFF" style="font-size:3px; font-family:Arial" x="167" y="290">Max: 9.8 km</text><polyline fill="none" points="13.0,53.290837637025106 14.199639747850597,52.381398539058864 15.02641849295469,50.70997949934099 17.71750225155847,47.85868307631608 18.738817172008567,45.867652597160486 19.176523566478863,45.79391011147527 24.558691083744634,49.48098048797692 25.223356349451933,49.62846101474861 27.217352146515623,51.816068158696 28.595316721708514,52.75009087186481 30.589312518772203,52.135603039227135 32.45361753227189,52.528875604170025 33.0048033624189,53.58578942058375 34.44761332933558,54.32316579953476 35.436505553894676,55.38006426960055 36.749624737363774,58.62444031807536 37.997898528934456,60.39406408001378 42.18042629840784,64.17900761831697 44.790453317342326,65.8502444947444 47.8219753827434,66.85789110177575 52.50705493846908,67.71807072932279 61.52056439506123,72.36293726398435 67.0,74.20608988851745 62.785049534693826,72.90359821623133 52.36115280695958,67.66891776902776 46.58991293911822,66.51381757429044 43.331432002421934,64.99005186629802 38.51666166319046,60.88562173885293 36.94416091265157,58.993114024917304 35.58240768540418,56.36321752177173 34.72320624435088,56.58442592561914 35.04743320326088,57.22347020106827 34.82047433202388,57.46925558089424 32.58330831583589,55.99453596890089 31.318823176261503,54.5689569480237 28.579105373763014,53.56121013214579 24.120984689274337,49.2105990650889" stroke="#ffe600" stroke-linecap="round" stroke-linejoin="round" stroke-width="0.5"><title>2014-09-01 5.5km</title></polyline><polyline fill="none" points="133.0,47.773925891429826 134.9109589040745,45.15683808430185 137.37671232875437,46.66790540552029 141.07534246571595,49.72110709860863 141.54794520547148,49.67437531667383 142.16438356164144,49.17590124081471 143.34589041094296,49.269365371685126 144.12671232875437,50.51554312517692 144.73287671231083,52.11996778249886 145.30821917805588,51.91746939549921 147.16780821915017,54.79912791986135 149.20205479449942,56.605951613863 151.25684931504657,57.96104203007417 152.8801369862922,58.52176224080176 156.04452054793364,59.113629219384165 162.2499999999709,62.21307009387965 165.2089041095751,63.11640163756965 168.9999999999709,65.09434984340623 171.5684931506985,66.90093605492439 173.98287671231083,68.27142193779582 176.67465753422584,69.1746836139937 178.46232876711292,70.10908128361189 182.43835616434808,72.88106212110142 187.0,74.92105277404335 183.2808219178114,73.33266768401518 179.81849315066938,70.91888358110737 176.69520547945285,69.36156403965288 176.22260273972643,68.9410824549559 173.30479452051804,67.9443763486779 169.43150684933062,65.40583319752477 166.63698630133877,63.86397848468914 163.7602739725844,62.64916248466761 162.49657534243306,62.36881765506405 160.3595890410652,61.091678510849306 158.77739726024447,60.49982648003788 157.85273972598952,59.84566903205996 156.81506849313155,59.56531416752114 156.19863013696158,59.113629219384165 154.60616438355646,58.599639730389754 153.09589041094296,58.58406423868291 150.2705479451688,57.384742074646056 146.8698630136787,54.48760238032992 145.30821917805588,51.995353452490235 144.6712328767171,52.1666981051676 143.5410958903958,49.59648895151622 142.19520547945285,49.36282939105877 141.55821917805588,49.985920002924104 141.2499999999709,49.985920002924104 139.16438356164144,48.31914150965895 138.70205479449942,47.711615293352224 138.41438356164144,47.72719294753915 136.88356164380093,46.38750336361409 135.37328767124563,45.49955694050004 137.61301369863213,46.885995188458764 138.49657534243306,47.74277059859014 138.87671232872526,47.50910550726985 139.86301369860303,46.122678291008924 139.87328767121653,45.40608831029385 140.1404109588766,45.312619568547234 139.729452054773,45.18799440589646 140.25342465750873,45.374932075435936 140.67465753419674,45.078947225956654 141.73287671231083,45.624181607272476" stroke="#ff0000" stroke-linecap="round" stroke-linejoin="round" stroke-width="0.5"><title>2014-09-05 9.8km</title></polyline><polyline fill="none" points="13.0,113.30495836832415 14.06914407556178,111.50935812637181 17.112092598283198,107.89314070549881 18.345720377692487,105.69841996210744 18.724032896745484,105.62359925952478 24.036856533726677,109.43939816013153 24.760584831004962,109.61397441660665 25.484313128283247,110.63648760888464 27.96801705757389,112.70642781167408 29.464818763372023,113.15532599698781 30.451720986922737,112.38222256711742 32.22814498934895,112.53185586103064 34.3006396588753,116.54694923022907 35.40268047520658,116.54694923022907 37.310691440769006,120.0132928815292 43.29789826378692,125.25003319720417 47.29485226928955,127.02050068959215 52.54188242467353,127.96806457034108 62.394456289941445,132.95512487251835 67.0,134.37640074047522 62.69052695709979,133.12966839065484 57.26256472739624,130.06265405560407 52.393847091065254,127.96806457034108 49.71276271704119,127.29479623356747 47.722509899467696,127.21998841739696 44.59731952485163,126.09786581985827 42.310996040236205,124.62662319958326 38.511422479467,121.3349670237294 36.52116966189351,118.86616818166658 35.28754188248422,116.42225882403 34.58026195556158,116.57188729654445 34.61315869638929,117.6442194573392 30.204995431064162,114.10299466593278 28.280536095087882,113.37977448697347 24.06975327443797,109.41445867510629" stroke="#ffe800" stroke-linecap="round" stroke-linejoin="round" stroke-width="0.5"><title>2014-09-23 5.5km</title></polyline><polyline fill="none" points="146.67506531486288,145.5821196581819 150.02577988477424,147.0 156.1817438621074,141.56477364251623 173.32493468513712,132.70288487744983 170.90930325118825,111.19748503173469 166.078040382592,107.06174193986226 162.10393705544993,108.24338576191803 168.4157482222654,98.55383701709798 167.71443587029353,94.18167180015007 162.2597842446994,93.94533762824722 154.93496634764597,102.92597004742129 155.09081353712827,105.52560145611642 157.66229216055945,108.12522148521384 162.33770783944055,106.82541289296933 168.4936718167737,99.14466768619604 168.18197743827477,95.48150806472404 165.8442695986014,93.11816728598205 160.93508313572966,95.12700754759135 155.48043151013553,101.86248119187076 154.7791191583965,105.52560145611642 158.1298337285407,108.36155001464067 161.4026247037109,107.53439975058427 168.18197743827477,99.61733179783914 168.4936718167737,95.48150806472404 165.76634600409307,93.47266900219256 163.2727909751702,93.82717050716747 155.4025079156272,102.68963935534703 155.87004948360845,107.17990642774384 161.16885391972028,108.12522148521384 168.57159541151486,98.672003198124 166.77935273456387,93.47266900219256 162.4156314341817,93.82717050716747 155.4025079156272,102.57147397386143 155.87004948360845,107.06174193986226 157.89606294455007,108.36155001464067 161.48054829821922,107.53439975058427 168.72744260076433,97.84483943891246 165.9221931931097,93.0 161.48054829821922,94.18167180015007 154.70119556388818,103.63496156013571 156.64928543008864,107.65256414469332 162.10393705544993,107.17990642774384 168.72744260076433,99.26283374929335 167.16897070757113,93.94533762824722 162.4156314341817,93.47266900219256 155.09081353712827,102.80780471320031 155.1687371316366,106.2345898654894 156.88305621407926,107.8888928621891 161.63639548770152,107.17990642774384 168.4157482222654,99.0265015992336 166.8572763290722,93.94533762824722 162.4156314341817,94.06350472586928 154.93496634764597,102.92597004742129 156.10382026759908,107.41623533325037 161.4026247037109,107.65256414469332 168.64951900602318,98.43567081302172 167.4806650863029,94.29983885079855 165.14295724709518,93.23633454815717 162.0260134609416,94.53617288172245 155.1687371316366,103.3986311503104 157.27267418708652,108.24338576191803 161.8701662714593,107.41623533325037 168.2599010327831,98.79016935528489 166.77935273456387,93.3545017868164 162.2597842446994,94.18167180015007 155.09081353712827,103.28046590980375 157.42852137656882,108.24338576191803 161.94808986620046,107.77072851505363 168.4936718167737,99.0265015992336 167.55858868104406,94.41800587816397 162.18186065019108,93.70900336233899 155.09081353712827,103.63496156013571 156.72720902459696,108.00705718545942 161.16885391972028,107.65256414469332 168.72744260076433,98.79016935528489 166.93519992381334,93.82717050716747 161.55847189296037,94.53617288172245 155.1687371316366,103.63496156013571 156.41551464609802,107.65256414469332 161.8701662714593,108.24338576191803" stroke="#fffe00" stroke-linecap="round" stroke-linejoin="round" stroke-width="0.5"><title>2014-11-02 5.0km</title></polyline><polyline fill="none" points="29.571701720939018,176.24262350448407 33.598470363300294,176.00776871139533 40.516252390109,172.40664432937047 45.11089866166003,171.5455010071455 50.47992351825815,172.48492999261362 57.13957934989594,168.6489141829079 61.73422562156338,168.57062775662052 65.96749521989841,170.2929255377676 67.0,183.05335152841872 64.88336520083249,185.16700177296298 60.443594646290876,186.18468117463635 42.632887189276516,187.5937713853491 28.07456978969276,190.49021874993923 25.90630975156091,189.86396166702616 18.317399617633782,194.87399042295874 19.55640535382554,172.48492999261362 22.550669216085225,168.9620597323228 22.550669216085225,166.77003565159976 21.053537285071798,165.12600957704126 19.401529636699706,165.12600957704126 13.619502868154086,171.3889292915119 14.135755258263089,174.91177782326122 17.336520076496527,175.14663327054586 22.240917782182805,169.27520503269625 20.537284894962795,165.28258378469036 17.74952198867686,166.30031461687759 13.516252390109003,171.85864425153704 13.567877629073337,174.20721064007375 14.70363288722001,175.22491838838323 18.2141491395887,174.28549594501965 22.29254302114714,168.49234131455887 20.43403441691771,165.36087086531916 18.2141491395887,165.75230603441014 13.051625238964334,172.6415012718935 14.135755258263089,174.59863700874848 17.130019120522775,174.99006298783934 21.98279158701189,169.7449225160526 22.705544933094643,167.39632949233055 21.001912045874633,165.5174449797778 18.678776290733367,165.36087086531916 13.619502868154086,171.15407160136965 13.103250478161499,172.79807248926954 14.239005736191757,174.83349264290882 18.05927342257928,174.3637812344241 22.395793498959392,168.6489141829079 21.673040152993053,165.83059302155743 18.007648183614947,165.75230603441014 13.516252390109003,171.70207266067155 14.393881453201175,175.0683481368469 17.491395793505944,175.22491838838323 22.447418738156557,168.88377336840495 21.82791587000247,165.90887999301776 19.45315487566404,165.20429668866564 18.05927342257928,165.98716694908217 13.0,172.79807248926954 14.600382409174927,175.14663327054586 18.162523900624365,174.28549594501965 22.447418738156557,168.33576838401495 20.692160611972213,165.28258378469036 18.523900573607534,165.59573201363673 13.413001911947504,172.17178724665428 14.290630975272506,175.0683481368469 17.904397705453448,174.59863700874848 22.395793498959392,169.19691873108968 20.9502868069103,165.5174449797778 18.678776290733367,165.6740190318087 13.77437858527992,171.5455010071455 13.567877629073337,173.81578388236812 14.806883365381509,174.83349264290882 18.472275334759615,173.65921306991368 22.29254302114714,168.72720059350831 22.240917782182805,167.00489595884574 20.692160611972213,165.59573201363673 17.801147227641195,166.691748851561 13.413001911947504,172.3283586507896 13.516252390109003,173.81578388236812 15.013384321355261,174.7552074471605 20.021032504853792,172.95464364395593 19.040152963716537,174.12892531970283" stroke="#ffe900" stroke-linecap="round" stroke-linejoin="round" stroke-width="0.5"><title>2015-08-14 5.4km</title></polyline><polyline fill="none" points="153.18966485088458,207.0 153.72710190329235,206.59253813784744 154.1973593242583,206.7708028621346 159.13506224367302,203.71480181091465 158.8831386253587,199.97110109389905 156.78377513919258,195.20854806669377 155.75928575790022,195.15761071301677 157.1700580206816,192.5852479903042 156.63262096821563,190.42034821248672 157.89223905984545,189.1213907700294 157.90903396782232,188.02618111504125 155.2890283370507,185.68291037888412 152.68581761419773,184.7914374210668 151.3422249830328,182.85564619017532 149.66273419413483,178.65284076118405 151.0735064567998,175.26502441213233 150.1161967071239,173.6602379997057 149.52837493101833,169.48260439508158 151.37581479887012,166.88425129699317 151.57735369348666,164.69344200801424 152.03081620647572,164.08204667572136 159.94121782237198,160.4645645264609 160.91532247996656,159.31815800119512 162.93071142671397,158.22269328193215 166.45764208346372,157.91698052389984 170.25329126644647,158.35007338222204 170.47162506898167,157.687695476081 170.4548301611212,157.2036479149756 169.4975204114453,156.89793272256065 165.26520362327574,156.1591179923853 163.33378921600524,156.41388217431086 158.71518954646308,158.5029293352054 155.57454177114414,158.17174120621348 153.91184589016484,156.66864584897849 153.17286994302412,155.34386920210818 152.7026125220582,153.35667851746257 152.0812009301735,153.0 159.43737058574334,195.41229727895552 158.86634371749824,200.2003104067262" stroke="#ffb900" stroke-linecap="round" stroke-linejoin="round" stroke-width="0.5"><title>2016-09-24 6.3km</title></polyline><polyline fill="none" points="29.31992483336944,227.84245227412612 30.44810178759508,229.38373976916773 33.11812057916541,230.24000701543991 35.22405089379754,232.80879339452076 37.29237530997489,233.77921780809993 38.60858175647445,235.60589013723074 39.3606997259194,238.85962136479793 41.50423593900632,239.7158602809941 45.152008090983145,238.80253867944703 52.37234059791081,234.80672242683067 52.03388751170132,232.12378594619804 46.50582043605391,222.24807982117636 45.528067075647414,222.13390781705675 43.38453086267691,223.78939742383955 40.564088477171026,223.90356876817532 38.646187654929236,220.59258130457602 36.12659245717805,219.8504581733432 36.72828683280386,216.02563923108391 36.201804254204035,215.1122420768079 30.48570768616628,213.28543902887031 25.446517290663905,213.0 23.716645960812457,216.48233671567868 22.362833615741692,227.61411268048687 24.09270494559314,249.70512516498275 21.159444864606485,256.44054711429635 31.689096437301487,259.2944916893757 41.54184183734469,265.17352788624703 44.55031371535733,265.915533587191 44.62552551238332,267.0 48.72456844593398,263.9748992316745 49.58950411085971,260.20774794739555 52.18431110563688,256.5547054434719 54.215029623243026,250.44717094030057 58.840555135393515,242.79829918387986 49.025415633805096,224.53151034816983 48.423721258179285,217.96659851098957 39.81197050772607,215.22641688059957 34.359115228871815,214.940979786159 31.914731828146614,220.93509902412188 26.085817564744502,217.79533792710572 24.957640610518865,217.852424799843 23.67904006235767,218.9941598628502 22.814104397431947,222.81893915966793 22.66368080349639,235.77714007088798 23.49101056996733,236.23380605966668 28.003718386869878,235.43464010149182 27.66526530054398,230.8679347025609" stroke="#ffff00" stroke-linecap="round" stroke-linejoin="round" stroke-width="0.5"><title>2019-06-24 5.0km</title></polyline></svg>