<?xml version="1.0" encoding="utf-8" ?>
<svg baseProfile="full" height="200mm" version="1.1" viewBox="0,0,200,200" width="200mm" xmlns="http://www.w3.org/2000/svg" xmlns:ev="http://www.w3.org/2001/xml-events" xmlns:xlink="http://www.w3.org/1999/xlink"><defs /><rect fill="#1a1a1a" height="200" width="200" x="0" y="0" /><text alignment-baseline="middle" fill="#e1ed5e" style="dominant-baseline: central; font-size:9.0px; font-family:Arial;" text-anchor="middle" x="100.0" y="100.0">2013</text><line stroke="#e1ed5e" stroke-width="0.3" x1="100.0" x2="100.0" y1="15.0" y2="10.0" /><path d="M 100.0 14.0 a86.0,86.0 0 0,1 42.46469731375804,11.215312516191453" fill="none" id="id25" stroke="none" /><text fill="#e1ed5e" style="font-size:6.75px; font-family:Arial;" text-anchor="middle"><textPath startOffset="22.20632615414155" xlink:href="#id25">January</textPath></text><line stroke="#e1ed5e" stroke-width="0.3" x1="143.23703022742887" x2="145.7803849466894" y1="26.81831364943548" y2="22.513508569990506" /><path d="M 143.74570117128098 25.957352633546492 a86.0,86.0 0 0,1 28.547481713284135,27.462654790039103" fill="none" id="id26" stroke="none" /><text fill="#e1ed5e" style="font-size:6.75px; font-family:Arial;" text-anchor="middle"><textPath startOffset="19.985693538727396" xlink:href="#id26">February</textPath></text><line stroke="#e1ed5e" stroke-width="0.3" x1="172.23445277983987" x2="176.4835382374775" y1="55.19839476539836" y2="52.563006222186495" /><path d="M 173.08426987136738 54.67131705675599 a86.0,86.0 0 0,1 12.851231095245387,41.99856678651699" fill="none" id="id27" stroke="none" /><text fill="#e1ed5e" style="font-size:6.75px; font-family:Arial;" text-anchor="middle"><textPath startOffset="22.20632615414155" xlink:href="#id27">March</textPath></text><line stroke="#e1ed5e" stroke-width="0.3" x1="184.98032266829074" x2="189.97916517819016" y1="98.17113171792111" y2="98.06355123074" /><path d="M 185.9800911702706 98.14961562048488 a86.0,86.0 0 0,1 -9.607161424134198,41.387399972396054" fill="none" id="id28" stroke="none" /><text fill="#e1ed5e" style="font-size:6.75px; font-family:Arial;" text-anchor="middle"><textPath startOffset="21.466115282336823" xlink:href="#id28">April</textPath></text><line stroke="#e1ed5e" stroke-width="0.3" x1="174.80103733775053" x2="179.2010983576182" y1="140.37084112569926" y2="142.7455964860345" /><path d="M 175.68104954172406 140.8457921977663 a86.0,86.0 0 0,1 -30.038265399797805,32.042727171017184" fill="none" id="id29" stroke="none" /><text fill="#e1ed5e" style="font-size:6.75px; font-family:Arial;" text-anchor="middle"><textPath startOffset="22.206326154141568" xlink:href="#id29">May</textPath></text><line stroke="#e1ed5e" stroke-width="0.3" x1="143.8653032363475" x2="146.44561519142675" y1="172.8068346515853" y2="177.08958963109032" /><path d="M 144.38136562736335 173.6633856474863 a86.0,86.0 0 0,1 -40.68145358897372,12.25698825130547" fill="none" id="id30" stroke="none" /><text fill="#e1ed5e" style="font-size:6.75px; font-family:Arial;" text-anchor="middle"><textPath startOffset="21.466115282336833" xlink:href="#id30">June</textPath></text><line stroke="#e1ed5e" stroke-width="0.3" x1="102.19456741930631" x2="102.32365962044197" y1="184.97166512339345" y2="189.96999836594603" /><path d="M 102.22038585953345 185.97133177190398 a86.0,86.0 0 0,1 -42.740103519485714,-10.115201625700543" fill="none" id="id31" stroke="none" /><text fill="#e1ed5e" style="font-size:6.75px; font-family:Arial;" text-anchor="middle"><textPath startOffset="22.20632615414155" xlink:href="#id31">July</textPath></text><path d="M 100.54218724476979 120.99299961872073 l 1.0745383084090838 41.60515120253419 a62.61902496649784,62.61902496649784 0 0,0 -1.0777638001195118,0.01855468121956673 l -0.3582148183969041 -41.61748336103292" fill="#ddff1b" stroke="none" /><path d="M 99.45781275523022 120.99299961872073 l -0.7721429367722179 29.896675979789762 a50.90664540458099,50.90664540458099 0 0,0 -0.875787378532889,-0.030163888105741325 l 1.28665066697975 -29.878955293257928" fill="#ff0000" stroke="none" /><path d="M 98.37488393609728 120.93702456842531 l -2.626486410832534 33.83808192762275 a54.93986180594726,54.93986180594726 0 0,0 -0.9422334958050643,-0.08129987072984346 l 3.2085642243791397 -33.78785780461425" fill="#ff6b09" stroke="none" /><path d="M 96.93821686468263 120.77559828337769 l -8.071900722776194 54.77153651586816 a76.36313569142769,76.36313569142769 0 0,0 -1.2987701624463996,-0.2028411888166894 l 9.01350674883111 -54.624477019704365" fill="#3bff9e" stroke="none" /><path d="M 95.16358092515715 120.4354850818985 l -8.972427435447162 37.911501085429634 a59.95877781238648,59.95877781238648 0 0,0 -1.0023015238976163,-0.24634132869911265 l 9.62368224408799 -37.75143849841649" fill="#ffe515" stroke="none" /><path d="M 94.81253420990036 120.34920634021253 l -11.021385844491643 43.23430048111221 a65.61698873774719,65.61698873774719 0 0,0 -1.0920840322749295,-0.28842931872112015 l 11.763960319578063 -43.0381798130875" fill="#9dff22" stroke="none" /><path d="M 94.46302465271185 120.25689768951611 l -10.308005844499661 37.711603660513305 a60.0950129190141,60.0950129190141 0 0,0 -0.9954848546131225,-0.2813339635431154 l 10.955621867217397 -37.52858090363167" fill="#ffe815" stroke="none" /><path d="M 93.08242187328487 119.8279376855182 l -13.97636584311824 40.06062612247612 a63.428676240315326,63.428676240315326 0 0,0 -1.0277875152252056,-0.3685280360314894 l 14.663872918973173 -39.814110545404674" fill="#cbff1d" stroke="none" /><path d="M 92.06813273071674 119.44442032107085 l -16.09999587825405 39.46801886569747 a63.625513257471155,63.625513257471155 0 0,0 -1.0105202178804389,-0.4223975330296413 l 16.77698755563195 -39.18503628964786" fill="#c7ff1e" stroke="none" /><path d="M 91.07499286063937 119.00905698771935 l -14.168986544781092 30.178023219740222 a54.33876520144931,54.33876520144931 0 0,0 -0.8432531055076955,-0.4048127350505305 l 14.68635231828903 -29.92965620819013" fill="#ff5b08" stroke="none" /><path d="M 90.42595943632237 118.69057910512821 l -17.901601730136232 34.94776327927802 a60.26593310656032,60.26593310656032 0 0,0 -0.9192250781790916,-0.480895115643102 l 18.50051771084182 -34.6344387446902" fill="#ffec16" stroke="none" /><line stroke="#e1ed5e" stroke-width="0.3" x1="58.666819895761336" x2="56.23545636021788" y1="174.27360380694188" y2="178.64263932499728" /><path d="M 58.180547188652646 175.14741091055294 a86.0,86.0 0 0,1 -31.652253787137756,-30.449443065178592" fill="none" id="id32" stroke="none" /><text fill="#e1ed5e" style="font-size:6.75px; font-family:Arial;" text-anchor="middle"><textPath startOffset="22.20632615414155" xlink:href="#id32">August</textPath></text><path d="M 89.7882731507175 118.34994917583269 l -21.73911714044012 39.06407804891278 a65.70560823719242,65.70560823719242 0 0,0 -0.9835542366454058,-0.558487764756044 l 22.40832014400673 -38.68408711836211" fill="#9bff22" stroke="none" /><path d="M 88.8546689885994 117.79835938074946 l -23.79886899388033 38.00522593498346 a65.84175915100809,65.84175915100809 0 0,0 -0.9553896285026511,-0.6097748636061584 l 24.449540424429905 -37.589936642553496" fill="#98ff23" stroke="none" /><path d="M 88.54995079064634 117.60387380957326 l -24.260859923744267 37.29984987841245 a65.49570906493845,65.49570906493845 0 0,0 -0.9397863935824949,-0.6228391766807373 l 24.89932101606672 -36.876712680640395" fill="#9fff22" stroke="none" /><path d="M 87.65650970185807 116.9893568818739 l -26.149989739985713 35.992373098623034 a65.4890198214328,65.4890198214328 0 0,0 -0.9062901634602345,-0.6704517965901082 l 26.765664873864512 -35.536911353293156" fill="#9fff22" stroke="none" /><path d="M 85.70375840098266 115.38237550388516 l -42.888724797052014 46.14712651165548 a84.0,84.0 0 0,0 -1.0506566624367322,-0.9934614530162769 l 43.67671729387956 -45.40203042189327" fill="#4dd2ff" stroke="none" /><path d="M 85.44109423537348 115.13401014063109 l -27.430646306398984 28.514208833863997 a60.56640572768732,60.56640572768732 0 0,0 -0.7451111335321423,-0.7292480692664584 l 27.91740739230692 -28.037810661674968" fill="#fff316" stroke="none" /><path d="M 85.18274418774928 114.88116024355367 l -40.556152268841544 40.73106440368049 a78.47887520046152,78.47887520046152 0 0,0 -0.9490688615359056,-0.9614017460487522 l 41.251261755432985 -40.02692216365108" fill="#40ffc8" stroke="none" /><line stroke="#e1ed5e" stroke-width="0.3" x1="26.63291911575756" x2="22.317208475507996" y1="142.92168965132927" y2="145.44649492493687" /><path d="M 25.769776987707644 143.4266507060508 a86.0,86.0 0 0,1 -11.730757126820373,-40.83630448921669" fill="none" id="id33" stroke="none" /><text fill="#e1ed5e" style="font-size:6.75px; font-family:Arial;" text-anchor="middle"><textPath startOffset="21.46611528233685" xlink:href="#id33">September</textPath></text><line stroke="#e1ed5e" stroke-width="0.3" x1="15.007084014347285" x2="10.007500721073583" y1="101.09737516637583" y2="101.16192664675087" /><path d="M 14.007167355692545 101.11028546245083 a86.0,86.0 0 0,1 10.666146001902534,-42.60595125391555" fill="none" id="id34" stroke="none" /><text fill="#e1ed5e" style="font-size:6.75px; font-family:Arial;" text-anchor="middle"><textPath startOffset="22.20632615414155" xlink:href="#id34">October</textPath></text><line stroke="#e1ed5e" stroke-width="0.3" x1="26.266209847984243" x2="21.928928074336255" y1="57.711370442889674" y2="55.22380399835377" /><path d="M 25.398753493254645 57.213857153982495 a86.0,86.0 0 0,1 29.58750427330803,-30.492523968695096" fill="none" id="id35" stroke="none" /><text fill="#e1ed5e" style="font-size:6.75px; font-family:Arial;" text-anchor="middle"><textPath startOffset="21.46611528233685" xlink:href="#id35">November</textPath></text><line stroke="#e1ed5e" stroke-width="0.3" x1="56.762969772571076" x2="54.21961505331055" y1="26.818313649435495" y2="22.513508569990535" /><path d="M 56.25429882871897 25.957352633546506 a86.0,86.0 0 0,1 42.265352541879196,-11.944610805530505" fill="none" id="id36" stroke="none" /><text fill="#e1ed5e" style="font-size:6.75px; font-family:Arial;" text-anchor="middle"><textPath startOffset="22.20632615414155" xlink:href="#id36">December</textPath></text></svg>