<?xml version="1.0" encoding="utf-8" ?>
<svg baseProfile="full" height="200mm" version="1.1" viewBox="0,0,200,200" width="200mm" xmlns="http://www.w3.org/2000/svg" xmlns:ev="http://www.w3.org/2001/xml-events" xmlns:xlink="http://www.w3.org/1999/xlink"><defs /><rect fill="#1a1a1a" height="200" width="200" x="0" y="0" /><text alignment-baseline="middle" fill="#e1ed5e" style="dominant-baseline: central; font-size:9.0px; font-family:Arial;" text-anchor="middle" x="100.0" y="100.0">2014</text><line stroke="#e1ed5e" stroke-width="0.3" x1="100.0" x2="100.0" y1="15.0" y2="10.0" /><path d="M 100.0 14.0 a86.0,86.0 0 0,1 42.46469731375804,11.215312516191453" fill="none" id="id37" stroke="none" /><text fill="#e1ed5e" style="font-size:6.75px; font-family:Arial;" text-anchor="middle"><textPath startOffset="22.20632615414155" xlink:href="#id37">January</textPath></text><path d="M 105.01212808612495 79.60689891045804 l 1.9551654476360265 -7.955081341755448 a29.191824649098358,29.191824649098358 0 0,0 0.4869350808402163,0.12413059416801304 l -2.091809417161268 7.920247751418566" fill="#ff0f01" stroke="none" /><line stroke="#e1ed5e" stroke-width="0.3" x1="143.23703022742887" x2="145.7803849466894" y1="26.81831364943548" y2="22.513508569990506" /><path d="M 143.74570117128098 25.957352633546492 a86.0,86.0 0 0,1 28.547481713284135,27.462654790039103" fill="none" id="id38" stroke="none" /><text fill="#e1ed5e" style="font-size:6.75px; font-family:Arial;" text-anchor="middle"><textPath startOffset="19.985693538727396" xlink:href="#id38">February</textPath></text><line stroke="#e1ed5e" stroke-width="0.3" x1="172.23445277983987" x2="176.4835382374775" y1="55.19839476539836" y2="52.563006222186495" /><path d="M 173.08426987136738 54.67131705675599 a86.0,86.0 0 0,1 12.851231095245387,41.99856678651699" fill="none" id="id39" stroke="none" /><text fill="#e1ed5e" style="font-size:6.75px; font-family:Arial;" text-anchor="middle"><textPath startOffset="22.20632615414155" xlink:href="#id39">March</textPath></text><line stroke="#e1ed5e" stroke-width="0.3" x1="184.98032266829074" x2="189.97916517819016" y1="98.17113171792111" y2="98.06355123074" /><path d="M 185.9800911702706 98.14961562048488 a86.0,86.0 0 0,1 -9.607161424134198,41.387399972396054" fill="none" id="id40" stroke="none" /><text fill="#e1ed5e" style="font-size:6.75px; font-family:Arial;" text-anchor="middle"><textPath startOffset="21.466115282336823" xlink:href="#id40">April</textPath></text><line stroke="#e1ed5e" stroke-width="0.3" x1="174.80103733775053" x2="179.2010983576182" y1="140.37084112569926" y2="142.7455964860345" /><path d="M 175.68104954172406 140.8457921977663 a86.0,86.0 0 0,1 -30.038265399797805,32.042727171017184" fill="none" id="id41" stroke="none" /><text fill="#e1ed5e" style="font-size:6.75px; font-family:Arial;" text-anchor="middle"><textPath startOffset="22.206326154141568" xlink:href="#id41">May</textPath></text><path d="M 113.48314897796784 116.09983520530334 l 11.45381153720599 13.676662515777657 a38.83930761829928,38.83930761829928 0 0,0 -0.5162481401385275,0.4248370733395677 l -11.216693268522771 -13.871794707974404" fill="#ffa30f" stroke="none" /><line stroke="#e1ed5e" stroke-width="0.3" x1="143.8653032363475" x2="146.44561519142675" y1="172.8068346515853" y2="177.08958963109032" /><path d="M 144.38136562736335 173.6633856474863 a86.0,86.0 0 0,1 -40.68145358897372,12.25698825130547" fill="none" id="id42" stroke="none" /><text fill="#e1ed5e" style="font-size:6.75px; font-family:Arial;" text-anchor="middle"><textPath startOffset="21.466115282336833" xlink:href="#id42">June</textPath></text><path d="M 104.83641907484287 120.43548508189849 l 4.3361551425452545 18.321702970117403 a39.827826245890165,39.827826245890165 0 0,0 -0.6685002973884958,0.1521484912355114 l -4.020134695763896 -18.3936281949306" fill="#ffb110" stroke="none" /><path d="M 103.7750983002368 120.6578951692458 l 2.5988884878389396 14.221501446722264 a35.457016454695804,35.457016454695804 0 0,0 -0.6013358513748742,0.10454994572756372 l -2.353703664992015 -14.264129970970835" fill="#ff700a" stroke="none" /><path d="M 101.26447882468166 120.96189622390904 l 1.1190591641465635 18.551201973002737 a39.584923676356624,39.584923676356624 0 0,0 -0.6805061789574519,0.035174396433538285 l -0.7995649167756319 -18.567716176198477" fill="#ffae10" stroke="none" /><line stroke="#e1ed5e" stroke-width="0.3" x1="102.19456741930631" x2="102.32365962044197" y1="184.97166512339345" y2="189.96999836594603" /><path d="M 102.22038585953345 185.97133177190398 a86.0,86.0 0 0,1 -42.740103519485714,-10.115201625700543" fill="none" id="id43" stroke="none" /><text fill="#e1ed5e" style="font-size:6.75px; font-family:Arial;" text-anchor="middle"><textPath startOffset="22.20632615414155" xlink:href="#id43">July</textPath></text><path d="M 100.54218724476979 120.99299961872073 l 0.5471450805256122 21.18496253399689 a42.19202692773854,42.19202692773854 0 0,0 -0.7261856808008915,0.012501945056960024 l -0.1823997098320527 -21.19124195633301" fill="#ffd313" stroke="none" /><path d="M 100.18074693466247 120.99922214144158 l 0.20611946656236066 23.947008971972114 a44.94789602320439,44.94789602320439 0 0,0 -0.7737328024496157,0.0 l 0.20611946656234414 -23.947008971972114" fill="#fff917" stroke="none" /><path d="M 98.37488393609728 120.93702456842531 l -1.6266465701760089 20.95674269696874 a42.01977743771846,42.01977743771846 0 0,0 -0.7206505529252412,-0.06218076204577381 l 1.9871414408427919 -20.925637682644304" fill="#ffd013" stroke="none" /><path d="M 96.93821686468263 120.77559828337769 l -3.685629939844176 25.008684046937006 a46.27880823561501,46.27880823561501 0 0,0 -0.7871014560333562,-0.12292905987339557 l 4.115567259486049 -24.941536679716506" fill="#f3ff19" stroke="none" /><path d="M 96.22490169976321 120.6578951692458 l -4.615973997824882 25.25929111436637 a46.67759730872231,46.67759730872231 0 0,0 -0.7891456532655957,-0.15124164263083192 l 5.050087265662173 -25.17609227338707" fill="#eeff19" stroke="none" /><path d="M 92.7421414339146 119.70592522655815 l -8.27071029156545 22.455934776367478 a44.93060081584825,44.93060081584825 0 0,0 -0.7234463873795534,-0.27354552086031103 l 8.656026899705287 -22.310241005400535" fill="#fff817" stroke="none" /><path d="M 92.40401165467489 119.57807347666478 l -8.709859236460087 22.448989697011505 a45.079426619740715,45.079426619740715 0 0,0 -0.7210109193185014,-0.28690512476635766 l 9.094991231820446 -22.29573772783908" fill="#fffa17" stroke="none" /><line stroke="#e1ed5e" stroke-width="0.3" x1="58.666819895761336" x2="56.23545636021788" y1="174.27360380694188" y2="178.64263932499728" /><path d="M 58.180547188652646 175.14741091055294 a86.0,86.0 0 0,1 -31.652253787137756,-30.449443065178592" fill="none" id="id44" stroke="none" /><text fill="#e1ed5e" style="font-size:6.75px; font-family:Arial;" text-anchor="middle"><textPath startOffset="22.20632615414155" xlink:href="#id44">August</textPath></text><path d="M 89.1626897886671 117.98757091392108 l -8.924651451124758 14.81297459689409 a38.29374511007644,38.29374511007644 0 0,0 -0.5616795241139994,-0.3450294391981363 l 9.178310175171067 -14.657156690867575" fill="#ff9b0e" stroke="none" /><path d="M 88.54995079064634 117.60387380957326 l -11.355449490233527 17.458431507329554 a41.82649907741006,41.82649907741006 0 0,0 -0.6001610683406332,-0.3977540303133778 l 11.654285257314122 -17.26037945592486" fill="#ffcd13" stroke="none" /><path d="M 82.85270091963577 112.12312394758628 l -20.448668844519354 14.457189193669116 a46.04313033337405,46.04313033337405 0 0,0 -0.4519661484922554,-0.6510909461313159 l 20.694495900173745 -14.103056985350788" fill="#f7ff19" stroke="none" /><path d="M 82.24976979558568 111.22182372390057 l -24.17520880068863 15.283741592396366 a49.60128454492979,49.60128454492979 0 0,0 -0.4500380297000213,-0.7256045991046597 l 24.43471147005661 -14.865340661926442" fill="#c8ff1d" stroke="none" /><line stroke="#e1ed5e" stroke-width="0.3" x1="26.63291911575756" x2="22.317208475507996" y1="142.92168965132927" y2="145.44649492493687" /><path d="M 25.769776987707644 143.4266507060508 a86.0,86.0 0 0,1 -11.730757126820373,-40.83630448921669" fill="none" id="id45" stroke="none" /><text fill="#e1ed5e" style="font-size:6.75px; font-family:Arial;" text-anchor="middle"><textPath startOffset="21.46611528233685" xlink:href="#id45">September</textPath></text><path d="M 81.87401531095188 110.60418214915194 l -30.417532796959144 17.795064038735894 a56.240468294232365,56.240468294232365 0 0,0 -0.4816540932463433,-0.8398045103193517 l 30.719338886357864 -17.268839682558234" fill="#76ff27" stroke="none" /><path d="M 81.18737489456691 109.33194174019688 l -56.437875316299255 27.995825220590643 a84.0,84.0 0 0,0 -0.6313869735411242,-1.300844176138861 l 56.9114155464551 -27.020192088486496" fill="#4dd2ff" stroke="none" /><path d="M 80.0844068197444 106.66101706037122 l -26.016709669107914 8.701611114072207 a48.43332313058697,48.43332313058697 0 0,0 -0.25763702393907123,-0.7929252271441095 l 26.162638944063236 -8.252486986950295" fill="#d7ff1c" stroke="none" /><path d="M 79.76711848015287 105.62410040840567 l -30.518214032778925 8.48309717215507 a52.67529519014353,52.67529519014353 0 0,0 -0.23531289385962936,-0.8756868165968587 l 30.659715002980327 -7.956519422382671" fill="#a1ff22" stroke="none" /><path d="M 79.23777060512086 103.15116336523772 l -34.61340579500604 5.2534096513851285 a56.00980110904693,56.00980110904693 0 0,0 -0.1364664107674253,-0.9544457590642679 l 34.69870625679006 -4.656818420340461" fill="#79ff26" stroke="none" /><line stroke="#e1ed5e" stroke-width="0.3" x1="15.007084014347285" x2="10.007500721073583" y1="101.09737516637583" y2="101.16192664675087" /><path d="M 14.007167355692545 101.11028546245083 a86.0,86.0 0 0,1 10.666146001902534,-42.60595125391555" fill="none" id="id46" stroke="none" /><text fill="#e1ed5e" style="font-size:6.75px; font-family:Arial;" text-anchor="middle"><textPath startOffset="22.20632615414155" xlink:href="#id46">October</textPath></text><path d="M 79.81627453868168 94.20196356495316 l -7.005295636984361 -2.0123618615082517 a28.288605300275567,28.288605300275567 0 0,0 0.13847151446680184,-0.4668571089048383 l 6.969618225405852 2.1326483571596295" fill="#ff0000" stroke="none" /><path d="M 79.91906864156998 93.8553929516997 l -28.190980240042556 -8.626218216155644 a50.48123144658658,50.48123144658658 0 0,0 0.2614074805925901,-0.8287331495143035 l 28.038317275681763 9.110201532096362" fill="#bdff1f" stroke="none" /><path d="M 80.803312248108 91.48605970444005 l -27.676187341703024 -12.274690805072224 a51.276052915351556,51.276052915351556 0 0,0 0.3647868333722905,-0.8037594330087189 l 27.460798191367385 12.749272246923015" fill="#b3ff20" stroke="none" /><path d="M 81.26839172434947 90.50648371742162 l -23.52554947425431 -11.923171983089114 a47.37448593250508,47.37448593250508 0 0,0 0.3749139367081535,-0.7242143930108637 l 23.316826104386042 12.326359098360312" fill="#e5ff1a" stroke="none" /><line stroke="#e1ed5e" stroke-width="0.3" x1="26.266209847984243" x2="21.928928074336255" y1="57.711370442889674" y2="55.22380399835377" /><path d="M 25.398753493254645 57.213857153982495 a86.0,86.0 0 0,1 29.58750427330803,-30.492523968695096" fill="none" id="id47" stroke="none" /><text fill="#e1ed5e" style="font-size:6.75px; font-family:Arial;" text-anchor="middle"><textPath startOffset="21.46611528233685" xlink:href="#id47">November</textPath></text><path d="M 81.96595687620814 89.24020034530311 l -27.810579561209412 -16.592855096639234 a53.38442798303569,53.38442798303569 0 0,0 0.47762336359712393,-0.7850872271460705 l 27.520840399326072 17.069110096992375" fill="#98ff23" stroke="none" /><path d="M 83.17141714833178 87.43820079747576 l -18.768849744532947 -14.01012336162336 a44.421214258461475,44.421214258461475 0 0,0 0.4626661106088284,-0.6088143684493347 l 18.524907693700012 14.331122505953722" fill="#fff116" stroke="none" /><path d="M 84.5562425177563 85.77008943001954 l -17.903900611283472 -16.496691614414594 a45.345235495263,45.345235495263 0 0,0 0.5338487622559148,-0.569472638046088 l 17.617284527057098 16.802433669338733" fill="#fffe18" stroke="none" /><path d="M 88.09926311788651 82.69761687909137 l -14.772992622992389 -21.478332034173754 a47.068372753380714,47.068372753380714 0 0,0 0.6714982628017144,-0.45339862454738017 l 14.401089665784134 21.7294425710198" fill="#e9ff1a" stroke="none" /><line stroke="#e1ed5e" stroke-width="0.3" x1="56.762969772571076" x2="54.21961505331055" y1="26.818313649435495" y2="22.513508569990535" /><path d="M 56.25429882871897 25.957352633546506 a86.0,86.0 0 0,1 42.265352541879196,-11.944610805530505" fill="none" id="id48" stroke="none" /><text fill="#e1ed5e" style="font-size:6.75px; font-family:Arial;" text-anchor="middle"><textPath startOffset="22.20632615414155" xlink:href="#id48">December</textPath></text><path d="M 96.04723909329186 79.375362276772 l -3.9584133429390564 -20.65413089325973 a42.030029936960716,42.030029936960716 0 0,0 0.7117182717035564,-0.13006196496512093 l 3.6022999501326067 20.719208339575587" fill="#ffd013" stroke="none" /></svg>