<?xml version="1.0" encoding="utf-8" ?>
<svg baseProfile="full" height="200mm" version="1.1" viewBox="0,0,200,200" width="200mm" xmlns="http://www.w3.org/2000/svg" xmlns:ev="http://www.w3.org/2001/xml-events" xmlns:xlink="http://www.w3.org/1999/xlink"><defs /><rect fill="#1a1a1a" height="200" width="200" x="0" y="0" /><text alignment-baseline="middle" fill="#e1ed5e" style="dominant-baseline: central; font-size:9.0px; font-family:Arial;" text-anchor="middle" x="100.0" y="100.0">2016</text><line stroke="#e1ed5e" stroke-width="0.3" x1="100.0" x2="100.0" y1="15.0" y2="10.0" /><path d="M 100.0 14.0 a86.0,86.0 0 0,1 42.35913384403234,11.155469271406648" fill="none" id="id61" stroke="none" /><text fill="#e1ed5e" style="font-size:6.75px; font-family:Arial;" text-anchor="middle"><textPath startOffset="22.145653131862478" xlink:href="#id61">January</textPath></text><line stroke="#e1ed5e" stroke-width="0.3" x1="143.13028292997686" x2="145.6673583964461" y1="26.7553504044142" y2="22.446841604673864" /><path d="M 143.63769802327073 25.89364864446614 a86.0,86.0 0 0,1 29.32050498858742,28.57503671076993" fill="none" id="id62" stroke="none" /><text fill="#e1ed5e" style="font-size:6.75px; font-family:Arial;" text-anchor="middle"><textPath startOffset="20.669276256404974" xlink:href="#id62">February</textPath></text><line stroke="#e1ed5e" stroke-width="0.3" x1="172.87174338648825" x2="177.1583165268699" y1="56.24261187166439" y2="53.66864786411523" /><path d="M 173.72905801456457 55.72781907015455 a86.0,86.0 0 0,1 12.242430191666344,42.057860355516425" fill="none" id="id63" stroke="none" /><text fill="#e1ed5e" style="font-size:6.75px; font-family:Arial;" text-anchor="middle"><textPath startOffset="22.145653131862474" xlink:href="#id63">March</textPath></text><path d="M 120.51834098615036 95.52812308129327 l 34.20484581511642 -7.454786944606669 a56.00778949927238,56.00778949927238 0 0,0 0.19667345758777788,0.9411536911506332 l -34.327776983528565 6.866516802170631" fill="#94ff23" stroke="none" /><path d="M 120.86939407059847 97.66154086499901 l 11.383515071924402 -1.2755466075493787 a32.45475597910146,32.45475597910146 0 0,0 0.057286674130315934,0.5541966059293704 l -11.403734138536382 1.079945479337077" fill="#ff0000" stroke="none" /><line stroke="#e1ed5e" stroke-width="0.3" x1="184.99686870605535" x2="189.99668451229388" y1="99.2704041080226" y2="99.22748670261217" /><path d="M 185.99683186730306 99.26182062694052 a86.0,86.0 0 0,1 -10.086455211305974,41.156179273409016" fill="none" id="id64" stroke="none" /><text fill="#e1ed5e" style="font-size:6.75px; font-family:Arial;" text-anchor="middle"><textPath startOffset="21.40746469413373" xlink:href="#id64">April</textPath></text><line stroke="#e1ed5e" stroke-width="0.3" x1="174.33088141563837" x2="178.70328620479359" y1="141.23008692659167" y2="143.65538615756765" /><path d="M 175.20536237346943 141.71514677278685 a86.0,86.0 0 0,1 -30.301960400862466,31.631185727798858" fill="none" id="id65" stroke="none" /><text fill="#e1ed5e" style="font-size:6.75px; font-family:Arial;" text-anchor="middle"><textPath startOffset="22.145653131862474" xlink:href="#id65">May</textPath></text><path d="M 114.65682725009322 115.03919595460226 l 27.893527714095413 28.62121672033365 a60.96527161035335,60.96527161035335 0 0,0 -0.7557589336604452,0.7239999624879864 l -27.398096294569655 -29.095828813127213" fill="#55ff2b" stroke="none" /><path d="M 114.13192950727249 115.5334660781643 l 19.493306273390285 21.426558319099374 a49.96698794956016,49.96698794956016 0 0,0 -0.6394227222067452,0.5717757410734402 l -19.122618524360163 -21.7580295900562" fill="#e7ff1a" stroke="none" /><line stroke="#e1ed5e" stroke-width="0.3" x1="143.1302829299769" x2="145.66735839644613" y1="173.24464959558577" y2="177.55315839532614" /><path d="M 143.63769802327073 174.10635135553383 a86.0,86.0 0 0,1 -40.68552437913181,11.842963189579606" fill="none" id="id66" stroke="none" /><text fill="#e1ed5e" style="font-size:6.75px; font-family:Arial;" text-anchor="middle"><textPath startOffset="21.407464694133747" xlink:href="#id66">June</textPath></text><path d="M 109.71004243097381 118.62028667847754 l 18.236898425910155 34.971657356873905 a60.44111157768702,60.44111157768702 0 0,0 -0.9240950293793969,0.4718495064388886 l -17.63387617481718 -35.279564814985626" fill="#5cff2a" stroke="none" /><path d="M 107.06938296918513 119.77432235084164 l 10.228937424176081 28.612158488785486 a51.38563433952119,51.38563433952119 0 0,0 -0.8331672329720039,0.2898188130776263 l -9.736264419159056 -28.7835357344317" fill="#d3ff1c" stroke="none" /><line stroke="#e1ed5e" stroke-width="0.3" x1="101.45913802915013" x2="101.54496967792366" y1="184.9874750549273" y2="189.98673829345242" /><path d="M 101.47630435890484 185.9873277026323 a86.0,86.0 0 0,1 -42.54439059252881,-10.42667462771756" fill="none" id="id67" stroke="none" /><text fill="#e1ed5e" style="font-size:6.75px; font-family:Arial;" text-anchor="middle"><textPath startOffset="22.145653131862474" xlink:href="#id67">July</textPath></text><path d="M 98.19965949673042 120.92268563240118 l -2.137286537996068 24.83850930401399 a45.930293584133516,45.930293584133516 0 0,0 -0.7849715438666643,-0.07433762133601059 l 2.5633576452477476 -24.798159927172797" fill="#ffdc14" stroke="none" /><path d="M 94.30408787586889 120.21278271476187 l -6.414137955722985 22.761512814124174 a44.647994234238666,44.647994234238666 0 0,0 -0.7359264843535935,-0.2142174740878313 l 6.803924452458186 -22.64805164573383" fill="#ffc812" stroke="none" /><path d="M 93.27111125876986 119.89276391827306 l -13.037190519834601 38.54213721494903 a61.68740195375497,61.68740195375497 0 0,0 -1.0002002048948673,-0.34792155134162545 l 13.69689649677449 -38.31265723103881" fill="#4cff2c" stroke="none" /><line stroke="#e1ed5e" stroke-width="0.3" x1="58.13341422392154" x2="55.67067388415222" y1="173.97424548756322" y2="178.32567169271397" /><path d="M 57.64086615596768 174.84453072859336 a86.0,86.0 0 0,1 -31.369924170532247,-30.572349798747897" fill="none" id="id68" stroke="none" /><text fill="#e1ed5e" style="font-size:6.75px; font-family:Arial;" text-anchor="middle"><textPath startOffset="22.145653131862474" xlink:href="#id68">August</textPath></text><path d="M 83.4222238831116 112.89097897827486 l -21.165275946680346 16.458246593165725 a47.81124366419016,47.81124366419016 0 0,0 -0.49825695886380966,-0.6522343534159725 l 21.44468488289845 -16.09249132650888" fill="#fff817" stroke="none" /><line stroke="#e1ed5e" stroke-width="0.3" x1="26.387840678322732" x2="22.057713659400548" y1="142.50000000000003" y2="145.00000000000006" /><path d="M 25.521815274538298 143.00000000000003 a86.0,86.0 0 0,1 -11.493303480769221,-40.785679425670985" fill="none" id="id69" stroke="none" /><text fill="#e1ed5e" style="font-size:6.75px; font-family:Arial;" text-anchor="middle"><textPath startOffset="21.40746469413373" xlink:href="#id69">September</textPath></text><path d="M 80.9802524753101 108.90220220490708 l -11.06838760302469 5.180564273868775 a33.22077944840165,33.22077944840165 0 0,0 -0.2373158574706728,-0.5185779772667568 l 11.155687925350419 -4.98979731438733" fill="#ff0d01" stroke="none" /><path d="M 80.28708602549918 107.23885506374661 l -39.672149962631636 14.568162982813545 a63.26240475116569,63.26240475116569 0 0,0 -0.3655959372958431,-1.0226369042048695 l 39.91638606997142 -13.884991122227754" fill="#3aff2e" stroke="none" /><path d="M 79.17382384314188 102.69636545807758 l -62.47852847057439 8.089096374232748 a84.0,84.0 0 0,0 -0.1728716549613547,-1.431625292306403 l 62.6081822117954 -7.015377405002945" fill="#4dd2ff" stroke="none" /><line stroke="#e1ed5e" stroke-width="0.3" x1="15.003131293944662" x2="10.003315487706104" y1="100.72959589197737" y2="100.7725132973878" /><path d="M 14.003168132696942 100.73817937305945 a86.0,86.0 0 0,1 10.791469493833604,-42.45332614584628" fill="none" id="id70" stroke="none" /><text fill="#e1ed5e" style="font-size:6.75px; font-family:Arial;" text-anchor="middle"><textPath startOffset="22.145653131862435" xlink:href="#id70">October</textPath></text><line stroke="#e1ed5e" stroke-width="0.3" x1="26.387840678322718" x2="22.05771365940052" y1="57.49999999999999" y2="54.99999999999999" /><path d="M 25.521815274538284 56.99999999999999 a86.0,86.0 0 0,1 29.574782752854787,-30.34633250058573" fill="none" id="id71" stroke="none" /><text fill="#e1ed5e" style="font-size:6.75px; font-family:Arial;" text-anchor="middle"><textPath startOffset="21.40746469413373" xlink:href="#id71">November</textPath></text><path d="M 87.54013794807813 83.09580414077388 l -11.516010756225521 -15.623680304724088 a40.40922177733371,40.40922177733371 0 0,0 0.5619171483329164,-0.40678468157821474 l 11.246112597518637 15.819065757675382" fill="#ff860c" stroke="none" /><line stroke="#e1ed5e" stroke-width="0.3" x1="56.869717070023135" x2="54.33264160355391" y1="26.7553504044142" y2="22.446841604673864" /><path d="M 56.362301976729285 25.89364864446614 a86.0,86.0 0 0,1 42.16139366436587,-11.88097634709845" fill="none" id="id72" stroke="none" /><text fill="#e1ed5e" style="font-size:6.75px; font-family:Arial;" text-anchor="middle"><textPath startOffset="22.145653131862474" xlink:href="#id72">December</textPath></text></svg>