<?xml version="1.0" encoding="utf-8" ?>
<svg baseProfile="full" height="200mm" version="1.1" viewBox="0,0,200,200" width="200mm" xmlns="http://www.w3.org/2000/svg" xmlns:ev="http://www.w3.org/2001/xml-events" xmlns:xlink="http://www.w3.org/1999/xlink"><defs /><rect fill="#1a1a1a" height="200" width="200" x="0" y="0" /><text alignment-baseline="middle" fill="#e1ed5e" style="dominant-baseline: central; font-size:9.0px; font-family:Arial;" text-anchor="middle" x="100.0" y="100.0">2020</text><line stroke="#e1ed5e" stroke-width="0.3" x1="100.0" x2="100.0" y1="15.0" y2="10.0" /><path d="M 100.0 14.0 a86.0,86.0 0 0,1 42.35913384403234,11.155469271406648" fill="none" id="id109" stroke="none" /><text fill="#e1ed5e" style="font-size:6.75px; font-family:Arial;" text-anchor="middle"><textPath startOffset="22.145653131862478" xlink:href="#id109">January</textPath></text><line stroke="#e1ed5e" stroke-width="0.3" x1="143.13028292997686" x2="145.6673583964461" y1="26.7553504044142" y2="22.446841604673864" /><path d="M 143.63769802327073 25.89364864446614 a86.0,86.0 0 0,1 29.32050498858742,28.57503671076993" fill="none" id="id110" stroke="none" /><text fill="#e1ed5e" style="font-size:6.75px; font-family:Arial;" text-anchor="middle"><textPath startOffset="20.669276256404974" xlink:href="#id110">February</textPath></text><line stroke="#e1ed5e" stroke-width="0.3" x1="172.87174338648825" x2="177.1583165268699" y1="56.24261187166439" y2="53.66864786411523" /><path d="M 173.72905801456457 55.72781907015455 a86.0,86.0 0 0,1 12.242430191666344,42.057860355516425" fill="none" id="id111" stroke="none" /><text fill="#e1ed5e" style="font-size:6.75px; font-family:Arial;" text-anchor="middle"><textPath startOffset="22.145653131862474" xlink:href="#id111">March</textPath></text><line stroke="#e1ed5e" stroke-width="0.3" x1="184.99686870605535" x2="189.99668451229388" y1="99.2704041080226" y2="99.22748670261217" /><path d="M 185.99683186730306 99.26182062694052 a86.0,86.0 0 0,1 -10.086455211305974,41.156179273409016" fill="none" id="id112" stroke="none" /><text fill="#e1ed5e" style="font-size:6.75px; font-family:Arial;" text-anchor="middle"><textPath startOffset="21.40746469413373" xlink:href="#id112">April</textPath></text><path d="M 119.58574465831526 107.57618678355244 l 29.376234629314865 11.36335862801426 a52.497445615564196,52.497445615564196 0 0,0 -0.33233714195366315,0.8377066964124636 l -29.17683881239508 -11.865966341640291" fill="#ffd814" stroke="none" /><line stroke="#e1ed5e" stroke-width="0.3" x1="174.33088141563837" x2="178.70328620479359" y1="141.23008692659167" y2="143.65538615756765" /><path d="M 175.20536237346943 141.71514677278685 a86.0,86.0 0 0,1 -30.301960400862466,31.631185727798858" fill="none" id="id113" stroke="none" /><text fill="#e1ed5e" style="font-size:6.75px; font-family:Arial;" text-anchor="middle"><textPath startOffset="22.145653131862474" xlink:href="#id113">May</textPath></text><path d="M 113.31354834802062 116.24036423190432 l 19.257659391489078 23.491213205999557 a51.37588752824081,51.37588752824081 0 0,0 -0.6868448021842284,0.553273553447136 l -18.851563818949597 -23.818335053240098" fill="#ffc312" stroke="none" /><path d="M 113.03279911837588 116.46651593811092 l 22.464294009428233 28.382901630325833 a57.197149201267024,57.197149201267024 0 0,0 -0.7751304694235979,0.602746141358523 l -21.973753595369402 -28.76434882330515" fill="#d3ff1c" stroke="none" /><path d="M 112.7482090630111 116.68781488649013 l 24.957025282379913 32.6695472259096 a62.11146344866949,62.11146344866949 0 0,0 -0.8528407066572397,0.6399875656704137 l -24.392531586811906 -33.09315381884402" fill="#83ff25" stroke="none" /><path d="M 112.45986205192187 116.90419585922612 l 28.051081888264715 38.05667994769468 a68.2776277296503,68.2776277296503 0 0,0 -0.9494458982702303,0.6873256111678229 l -27.393654979620518 -38.53260633023558" fill="#30ff3a" stroke="none" /><path d="M 112.16784306229584 117.11559508785304 l 29.748229192597854 41.844609832195324 a72.34129441398989,72.34129441398989 0 0,0 -1.0183067495057037,0.7108571968426085 l -29.02552735191839 -42.34911184484306" fill="#38ff7f" stroke="none" /><path d="M 111.8722381534696 117.32195027204791 l 26.138017473134624 38.13614863741933 a67.2337732650195,67.2337732650195 0 0,0 -0.9576129118481805,0.6443247039978469 l -25.47950827318944 -38.5792230154743" fill="#36ff2f" stroke="none" /><line stroke="#e1ed5e" stroke-width="0.3" x1="143.1302829299769" x2="145.66735839644613" y1="173.24464959558577" y2="177.55315839532614" /><path d="M 143.63769802327073 174.10635135553383 a86.0,86.0 0 0,1 -40.68552437913181,11.842963189579606" fill="none" id="id114" stroke="none" /><text fill="#e1ed5e" style="font-size:6.75px; font-family:Arial;" text-anchor="middle"><textPath startOffset="21.407464694133747" xlink:href="#id114">June</textPath></text><path d="M 110.34350942703117 118.27599006163325 l 31.03052828109348 54.82797018489977 a84.0,84.0 0 0,0 -1.2610232473756222,0.6994683382674252 l -30.084760845561767 -55.352571438600336" fill="#4dd2ff" stroke="none" /><path d="M 110.02825361518725 118.45085714620011 l 17.851485432789584 32.84472254162497 a58.38250033094932,58.38250033094932 0 0,0 -0.884664979412062,0.4710342725837969 l -17.28503163759097 -33.146327281931335" fill="#bfff1e" stroke="none" /><path d="M 108.07796709384702 119.3841803445677 l 11.499408164077623 27.59439338123355 a50.89459707375768,50.89459707375768 0 0,0 -0.8093344591567343,0.329149278756124 l -11.024019243730448 -27.787729916568967" fill="#ffba11" stroke="none" /><path d="M 107.407793817531 119.65005319985036 l 7.2897788293449395 19.337004422662794 a41.66544496067883,41.66544496067883 0 0,0 -0.6714304083738858,0.24655854623511358 l -6.956759269316926 -19.45929381790663" fill="#ff0000" stroke="none" /><path d="M 106.72888874123015 119.89276391827305 l 8.404541341426508 24.84653308679891 a47.229497166227574,47.229497166227574 0 0,0 -0.7702394710363674,0.2531930130295164 l -7.976779132742408 -24.98714702123045" fill="#ff730a" stroke="none" /><line stroke="#e1ed5e" stroke-width="0.3" x1="101.45913802915013" x2="101.54496967792366" y1="184.9874750549273" y2="189.98673829345242" /><path d="M 101.47630435890484 185.9873277026323 a86.0,86.0 0 0,1 -42.54439059252881,-10.42667462771756" fill="none" id="id115" stroke="none" /><text fill="#e1ed5e" style="font-size:6.75px; font-family:Arial;" text-anchor="middle"><textPath startOffset="22.145653131862474" xlink:href="#id115">July</textPath></text><path d="M 93.27111125876986 119.89276391827306 l -13.611352383027034 40.23954474160028 a63.47928759650032,63.47928759650032 0 0,0 -1.0292538581572572,-0.3580279201123206 l 14.300112013229313 -39.99995838891936" fill="#6dff28" stroke="none" /><path d="M 92.93061703081489 119.77432235084164 l -13.741030951775633 38.43610915658528 a61.81850583638008,61.81850583638008 0 0,0 -0.9961930001697232,-0.36581586837316515 l 14.398813103599476 -38.194562439203395" fill="#87ff25" stroke="none" /><line stroke="#e1ed5e" stroke-width="0.3" x1="58.13341422392154" x2="55.67067388415222" y1="173.97424548756322" y2="178.32567169271397" /><path d="M 57.64086615596768 174.84453072859336 a86.0,86.0 0 0,1 -31.369924170532247,-30.572349798747897" fill="none" id="id116" stroke="none" /><text fill="#e1ed5e" style="font-size:6.75px; font-family:Arial;" text-anchor="middle"><textPath startOffset="22.145653131862474" xlink:href="#id116">August</textPath></text><path d="M 89.03521579738668 117.91015095944536 l -30.89432469629462 50.46355759275955 a80.16950180082506,80.16950180082506 0 0,0 -1.1675575917976209,-0.7286422894678373 l 31.756046416881954 -49.92577950645016" fill="#46fff7" stroke="none" /><path d="M 88.72937992617639 117.7192867562869 l -29.2770275766391 46.028350135503516 a75.55046617509142,75.55046617509142 0 0,0 -1.08833816703076,-0.7054476509406441 l 30.06285137592687 -45.51898864285898" fill="#3effb2" stroke="none" /><path d="M 87.83215693770417 117.11559508785305 l -24.648458076154835 34.671143095084304 a63.53980076412881,63.53980076412881 0 0,0 -0.8835632581038652,-0.6396316604117115 l 25.240002344632654 -34.242910663299526" fill="#6cff28" stroke="none" /><path d="M 86.96720088162412 116.46651593811092 l -22.340669236603425 28.22670576836438 a56.99795022599389,56.99795022599389 0 0,0 -0.7620062198703291,-0.6138182711374656 l 22.821926226829017 -27.8390392034335" fill="#d7ff1c" stroke="none" /><path d="M 85.08716467003676 114.78537596483092 l -21.319178318069866 21.136964213679924 a51.021302775330156,51.021302775330156 0 0,0 -0.6113158667025669,-0.6272639332253154 l 21.678880985923243 -20.76787758838687" fill="#ffbc11" stroke="none" /><path d="M 84.83555147118756 114.52719865689866 l -39.14122149400323 37.49640478100433 a75.20346475589494,75.20346475589494 0 0,0 -0.8850522665352732,-0.9398948365213416 l 39.77912959427476 -36.818968484538495" fill="#3dffad" stroke="none" /><path d="M 83.8745106332314 113.45245675266167 l -46.47638511374839 38.77225345180566 a81.5255484152974,81.5255484152974 0 0,0 -0.8872820668395854,-1.082339851498275 l 47.13511399982661 -37.96871131860889" fill="#48f4ff" stroke="none" /><line stroke="#e1ed5e" stroke-width="0.3" x1="26.387840678322732" x2="22.057713659400548" y1="142.50000000000003" y2="145.00000000000006" /><path d="M 25.521815274538298 143.00000000000003 a86.0,86.0 0 0,1 -11.493303480769221,-40.785679425670985" fill="none" id="id117" stroke="none" /><text fill="#e1ed5e" style="font-size:6.75px; font-family:Arial;" text-anchor="middle"><textPath startOffset="21.40746469413373" xlink:href="#id117">September</textPath></text><path d="M 79.2786578344484 103.40968896794605 l -61.345144527424786 10.094320187422472 a83.1701058157121,83.1701058157121 0 0,0 -0.21972158901705266,-1.4107702191223093 l 61.509387608580106 -9.039761786368713" fill="#4bddff" stroke="none" /><line stroke="#e1ed5e" stroke-width="0.3" x1="15.003131293944662" x2="10.003315487706104" y1="100.72959589197737" y2="100.7725132973878" /><path d="M 14.003168132696942 100.73817937305945 a86.0,86.0 0 0,1 10.791469493833604,-42.45332614584628" fill="none" id="id118" stroke="none" /><text fill="#e1ed5e" style="font-size:6.75px; font-family:Arial;" text-anchor="middle"><textPath startOffset="22.145653131862435" xlink:href="#id118">October</textPath></text><line stroke="#e1ed5e" stroke-width="0.3" x1="26.387840678322718" x2="22.05771365940052" y1="57.49999999999999" y2="54.99999999999999" /><path d="M 25.521815274538284 56.99999999999999 a86.0,86.0 0 0,1 29.574782752854787,-30.34633250058573" fill="none" id="id119" stroke="none" /><text fill="#e1ed5e" style="font-size:6.75px; font-family:Arial;" text-anchor="middle"><textPath startOffset="21.40746469413373" xlink:href="#id119">November</textPath></text><path d="M 88.72937992617638 82.28071324371311 l -22.09868335619081 -34.74280072967503 a62.17540538500007,62.17540538500007 0 0,0 0.9054985368464363,-0.5650980573744051 l 21.499020690554676 35.11703458389097" fill="#82ff25" stroke="none" /><line stroke="#e1ed5e" stroke-width="0.3" x1="56.869717070023135" x2="54.33264160355391" y1="26.7553504044142" y2="22.446841604673864" /><path d="M 56.362301976729285 25.89364864446614 a86.0,86.0 0 0,1 42.16139366436587,-11.88097634709845" fill="none" id="id120" stroke="none" /><text fill="#e1ed5e" style="font-size:6.75px; font-family:Arial;" text-anchor="middle"><textPath startOffset="22.145653131862474" xlink:href="#id120">December</textPath></text></svg>