<?xml version="1.0" encoding="utf-8" ?>
<svg baseProfile="full" height="200mm" version="1.1" viewBox="0,0,200,200" width="200mm" xmlns="http://www.w3.org/2000/svg" xmlns:ev="http://www.w3.org/2001/xml-events" xmlns:xlink="http://www.w3.org/1999/xlink"><defs /><rect fill="#1a1a1a" height="200" width="200" x="0" y="0" /><text alignment-baseline="middle" fill="#e1ed5e" style="dominant-baseline: central; font-size:9.0px; font-family:Arial;" text-anchor="middle" x="100.0" y="100.0">2012</text><line stroke="#e1ed5e" stroke-width="0.3" x1="100.0" x2="100.0" y1="15.0" y2="10.0" /><path d="M 100.0 14.0 a86.0,86.0 0 0,1 42.35913384403234,11.155469271406648" fill="none" id="id13" stroke="none" /><text fill="#e1ed5e" style="font-size:6.75px; font-family:Arial;" text-anchor="middle"><textPath startOffset="22.145653131862478" xlink:href="#id13">January</textPath></text><path d="M 103.58742460773223 79.30868818359171 l 6.830714058654835 -39.39774349869784 a60.985507966515726,60.985507966515726 0 0,0 1.0299734015461257,0.18769546398091144 l -7.506022193752014 39.27467986078556" fill="#8fff24" stroke="none" /><path d="M 109.71004243097381 81.37971332152246 l 29.130127292921436 -55.86086003543262 a84.0,84.0 0 0,0 1.2728447368537619,0.6777181291097074 l -30.08476084556176 55.35257143860034" fill="#4dd2ff" stroke="none" /><line stroke="#e1ed5e" stroke-width="0.3" x1="143.13028292997686" x2="145.6673583964461" y1="26.7553504044142" y2="22.446841604673864" /><path d="M 143.63769802327073 25.89364864446614 a86.0,86.0 0 0,1 29.32050498858742,28.57503671076993" fill="none" id="id14" stroke="none" /><text fill="#e1ed5e" style="font-size:6.75px; font-family:Arial;" text-anchor="middle"><textPath startOffset="20.669276256404974" xlink:href="#id14">February</textPath></text><line stroke="#e1ed5e" stroke-width="0.3" x1="172.87174338648825" x2="177.1583165268699" y1="56.24261187166439" y2="53.66864786411523" /><path d="M 173.72905801456457 55.72781907015455 a86.0,86.0 0 0,1 12.242430191666344,42.057860355516425" fill="none" id="id15" stroke="none" /><text fill="#e1ed5e" style="font-size:6.75px; font-family:Arial;" text-anchor="middle"><textPath startOffset="22.145653131862474" xlink:href="#id15">March</textPath></text><line stroke="#e1ed5e" stroke-width="0.3" x1="184.99686870605535" x2="189.99668451229388" y1="99.2704041080226" y2="99.22748670261217" /><path d="M 185.99683186730306 99.26182062694052 a86.0,86.0 0 0,1 -10.086455211305974,41.156179273409016" fill="none" id="id16" stroke="none" /><text fill="#e1ed5e" style="font-size:6.75px; font-family:Arial;" text-anchor="middle"><textPath startOffset="21.40746469413373" xlink:href="#id16">April</textPath></text><path d="M 120.43855184770803 104.8234425847677 l 54.33947957372785 12.823969220667955 a76.83218808999183,76.83218808999183 0 0,0 -0.31396000491273296,1.281063959158361 l -54.11133204229882 -13.754889004434416" fill="#40ffc8" stroke="none" /><line stroke="#e1ed5e" stroke-width="0.3" x1="174.33088141563837" x2="178.70328620479359" y1="141.23008692659167" y2="143.65538615756765" /><path d="M 175.20536237346943 141.71514677278685 a86.0,86.0 0 0,1 -30.301960400862466,31.631185727798858" fill="none" id="id17" stroke="none" /><text fill="#e1ed5e" style="font-size:6.75px; font-family:Arial;" text-anchor="middle"><textPath startOffset="22.145653131862474" xlink:href="#id17">May</textPath></text><line stroke="#e1ed5e" stroke-width="0.3" x1="143.1302829299769" x2="145.66735839644613" y1="173.24464959558577" y2="177.55315839532614" /><path d="M 143.63769802327073 174.10635135553383 a86.0,86.0 0 0,1 -40.68552437913181,11.842963189579606" fill="none" id="id18" stroke="none" /><text fill="#e1ed5e" style="font-size:6.75px; font-family:Arial;" text-anchor="middle"><textPath startOffset="21.407464694133747" xlink:href="#id18">June</textPath></text><path d="M 106.38641147887787 120.00534299687104 l 6.077709532155815 19.03833854556033 a40.9849165055205,40.9849165055205 0 0,0 -0.6720733290309694,0.20821003529850995 l -5.749995570253221 -19.139865168665484" fill="#ff0000" stroke="none" /><path d="M 104.64783097203109 120.47920084513623 l 7.959481459369417 35.07094393287121 a56.96282043228314,56.96282043228314 0 0,0 -0.9554498196012154,0.20823584119891372 l -7.356269223149066 -35.20241123220384" fill="#d0ff1d" stroke="none" /><path d="M 100.72087961077811 120.9876233191556 l 1.012738086840042 29.484764404168246 a50.502151962218676,50.502151962218676 0 0,0 -0.8666811037123652,0.02232263090210896 l -0.5064436690569329 -29.497804752420397" fill="#ffbc11" stroke="none" /><line stroke="#e1ed5e" stroke-width="0.3" x1="101.45913802915013" x2="101.54496967792366" y1="184.9874750549273" y2="189.98673829345242" /><path d="M 101.47630435890484 185.9873277026323 a86.0,86.0 0 0,1 -42.54439059252881,-10.42667462771756" fill="none" id="id19" stroke="none" /><text fill="#e1ed5e" style="font-size:6.75px; font-family:Arial;" text-anchor="middle"><textPath startOffset="22.145653131862474" xlink:href="#id19">July</textPath></text><path d="M 100.0 121.0 l 3.3458491564425594e-15 27.320931706775127 a48.32093170677513,48.32093170677513 0 0,0 -0.8294930477331907,-0.0071202001822313135 l 0.4690001228843352 -27.31690590478733" fill="#ff930d" stroke="none" /><path d="M 99.27912038922189 120.98762331915562 l -1.2135982269350079 35.332588225396734 a56.35342432299682,56.35342432299682 0 0,0 -0.966526273479694,-0.04150679688981905 l 1.8199502610155407 -35.30654886008108" fill="#daff1c" stroke="none" /><path d="M 98.91894614982273 120.97215588758144 l -1.8760504093226882 36.39487674996466 a57.44319715369986,57.44319715369986 0 0,0 -0.9843456632061085,-0.05921579075256661 l 2.500540424661243 -36.3573089813874" fill="#c8ff1d" stroke="none" /><path d="M 97.48249496171623 120.84855314841334 l -3.138486780258052 25.991172787645933 a47.17997635879607,47.17997635879607 0 0,0 -0.803232757663696,-0.10399456175960355 l 3.5841973598125416 -25.933466629685935" fill="#ff7d0b" stroke="none" /><path d="M 96.76829788921471 120.74984581791261 l -4.131397729444173 26.52653708779174 a47.84633340083609,47.84633340083609 0 0,0 -0.8104770089095724,-0.13336368339339488 l 4.586152241406809 -26.451707405902678" fill="#ff8a0c" stroke="none" /><path d="M 94.30408787586889 120.21278271476187 l -12.023107655940121 42.66576753811476 a65.32745015588843,65.32745015588843 0 0,0 -1.0767829899095438,-0.3134358351592236 l 12.753750658231272 -42.45308800865301" fill="#4dff2c" stroke="none" /><line stroke="#e1ed5e" stroke-width="0.3" x1="58.13341422392154" x2="55.67067388415222" y1="173.97424548756322" y2="178.32567169271397" /><path d="M 57.64086615596768 174.84453072859336 a86.0,86.0 0 0,1 -31.369924170532247,-30.572349798747897" fill="none" id="id20" stroke="none" /><text fill="#e1ed5e" style="font-size:6.75px; font-family:Arial;" text-anchor="middle"><textPath startOffset="22.145653131862474" xlink:href="#id20">August</textPath></text><path d="M 86.96720088162412 116.46651593811092 l -15.393871155453038 19.44965332681979 a45.804440805713824,45.804440805713824 0 0,0 -0.6123600700243889,-0.4932739257167099 l 15.72548199583269 -19.182531107309668" fill="#ff6209" stroke="none" /><path d="M 86.13680546590413 115.77377054828092 l -17.02349950718379 19.369617478472705 a46.78723747774162,46.78723747774162 0 0,0 -0.5987317623137842,-0.5353896338242408 l 17.353496296320944 -19.07453231476508" fill="#ff760a" stroke="none" /><path d="M 83.20337586046588 112.60449989151573 l -30.761769340065673 23.084205200322128 a59.45993997215783,59.45993997215783 0 0,0 -0.605636241700535,-0.8216618776748261 l 31.153507601350036 -22.55273701337842" fill="#a7ff21" stroke="none" /><path d="M 82.576782715395 111.72311816256416 l -25.399647488046543 17.09001638020932 a51.61389802675987,51.61389802675987 0 0,0 -0.48830572142642453,-0.7393570992288191 l 25.68927764839369 -16.651479402641442" fill="#ffd113" stroke="none" /><line stroke="#e1ed5e" stroke-width="0.3" x1="26.387840678322732" x2="22.057713659400548" y1="142.50000000000003" y2="145.00000000000006" /><path d="M 25.521815274538298 143.00000000000003 a86.0,86.0 0 0,1 -11.493303480769221,-40.785679425670985" fill="none" id="id21" stroke="none" /><text fill="#e1ed5e" style="font-size:6.75px; font-family:Arial;" text-anchor="middle"><textPath startOffset="21.40746469413373" xlink:href="#id21">September</textPath></text><path d="M 81.29705330413844 109.54985784667822 l -36.64308668869462 18.710221155577155 a62.143507115531555,62.143507115531555 0 0,0 -0.4769664700099246,-0.9542524471914325 l 36.95887307191628 -18.07843685222197" fill="#7dff26" stroke="none" /><line stroke="#e1ed5e" stroke-width="0.3" x1="15.003131293944662" x2="10.003315487706104" y1="100.72959589197737" y2="100.7725132973878" /><path d="M 14.003168132696942 100.73817937305945 a86.0,86.0 0 0,1 10.791469493833604,-42.45332614584628" fill="none" id="id22" stroke="none" /><text fill="#e1ed5e" style="font-size:6.75px; font-family:Arial;" text-anchor="middle"><textPath startOffset="22.145653131862435" xlink:href="#id22">October</textPath></text><path d="M 79.17382384314186 97.30363454192245 l -32.371263853417624 -4.191108201105207 a53.64144775313978,53.64144775313978 0 0,0 0.1260714088826082,-0.9121899122724506 l 32.29454792797981 4.746186421577725" fill="#fff517" stroke="none" /><line stroke="#e1ed5e" stroke-width="0.3" x1="26.387840678322718" x2="22.05771365940052" y1="57.49999999999999" y2="54.99999999999999" /><path d="M 25.521815274538284 56.99999999999999 a86.0,86.0 0 0,1 29.574782752854787,-30.34633250058573" fill="none" id="id23" stroke="none" /><text fill="#e1ed5e" style="font-size:6.75px; font-family:Arial;" text-anchor="middle"><textPath startOffset="21.40746469413373" xlink:href="#id23">November</textPath></text><line stroke="#e1ed5e" stroke-width="0.3" x1="56.869717070023135" x2="54.33264160355391" y1="26.7553504044142" y2="22.446841604673864" /><path d="M 56.362301976729285 25.89364864446614 a86.0,86.0 0 0,1 42.16139366436587,-11.88097634709845" fill="none" id="id24" stroke="none" /><text fill="#e1ed5e" style="font-size:6.75px; font-family:Arial;" text-anchor="middle"><textPath startOffset="22.145653131862474" xlink:href="#id24">December</textPath></text></svg>